<?xml version="1.0" standalone="no"?>
 <!DOCTYPE svg PUBLIC "-//W3C//DTD SVG 1.1//EN" 
 "http://www.w3.org/Graphics/SVG/1.1/DTD/svg11.dtd"> 
<svg
  xmlns:svg="http://www.w3.org/2000/svg"
  xmlns="http://www.w3.org/2000/svg"
  xmlns:xlink="http://www.w3.org/1999/xlink"
  version="1.1"
  width="210.0072mm" height="148.0058mm" viewBox="0.0000 0.0000 210.0072 148.0058">
<title>SVG Image created as schematic.svg date 2025/09/04 16:50:45 </title>
  <desc>Image generated by Eeschema-SVG </desc>
<g style="fill:#000000; fill-opacity:1.0000;stroke:#000000; stroke-opacity:1.0000;
stroke-linecap:round; stroke-linejoin:round;"
 transform="translate(0 0) scale(1 1)">
</g>
<g style="fill:#F5F4EF; fill-opacity:1.0000; 
stroke:#F5F4EF; stroke-width:0.0001; stroke-opacity:1; 
stroke-linecap:round; stroke-linejoin:round;">
<rect x="0.000000" y="0.000000" width="210.007200" height="148.005800" rx="0.000000" />
</g>
<g style="fill:none; 
stroke:#840000; stroke-width:0.2540; stroke-opacity:1; 
stroke-linecap:round; stroke-linejoin:round;">
<rect x="83.820000" y="48.514000" width="5.080000" height="2.032000" rx="0.000000" />
</g>
<g style="fill:none; 
stroke:#840000; stroke-width:0.1524; stroke-opacity:1; 
stroke-linecap:round; stroke-linejoin:round;">
<path d="M83.8200 49.5300
L82.5500 49.5300
" />
<path d="M88.9000 49.5300
L90.1700 49.5300
" />
</g>
<g style="fill:none; 
stroke:#006464; stroke-width:0.1524; stroke-opacity:1; 
stroke-linecap:round; stroke-linejoin:round;">
<text x="86.3599" y="43.8149"
textLength="2.6827" font-size="1.6933" lengthAdjust="spacingAndGlyphs"
text-anchor="middle" opacity="0" stroke-opacity="0">R1</text>
<g class="stroked-text"><desc>R1</desc>
<path d="M86.1482 43.7594
L85.7249 43.1547
" />
<path d="M85.4225 43.7594
L85.4225 42.4894
" />
<path d="M85.4225 42.4894
L85.9063 42.4894
" />
<path d="M85.9063 42.4894
L86.0273 42.5499
" />
<path d="M86.0273 42.5499
L86.0878 42.6104
" />
<path d="M86.0878 42.6104
L86.1482 42.7313
" />
<path d="M86.1482 42.7313
L86.1482 42.9128
" />
<path d="M86.1482 42.9128
L86.0878 43.0337
" />
<path d="M86.0878 43.0337
L86.0273 43.0942
" />
<path d="M86.0273 43.0942
L85.9063 43.1547
" />
<path d="M85.9063 43.1547
L85.4225 43.1547
" />
<path d="M87.3578 43.7594
L86.6321 43.7594
" />
<path d="M86.9949 43.7594
L86.9949 42.4894
" />
<path d="M86.9949 42.4894
L86.8740 42.6709
" />
<path d="M86.8740 42.6709
L86.7530 42.7918
" />
<path d="M86.7530 42.7918
L86.6321 42.8523
" />
</g><text x="86.3599" y="46.3549"
textLength="3.8317" font-size="1.6933" lengthAdjust="spacingAndGlyphs"
text-anchor="middle" opacity="0" stroke-opacity="0">330</text>
<g class="stroked-text"><desc>330</desc>
<path d="M84.7271 45.0294
L85.5133 45.0294
" />
<path d="M85.5133 45.0294
L85.0899 45.5132
" />
<path d="M85.0899 45.5132
L85.2714 45.5132
" />
<path d="M85.2714 45.5132
L85.3923 45.5737
" />
<path d="M85.3923 45.5737
L85.4528 45.6342
" />
<path d="M85.4528 45.6342
L85.5133 45.7551
" />
<path d="M85.5133 45.7551
L85.5133 46.0575
" />
<path d="M85.5133 46.0575
L85.4528 46.1785
" />
<path d="M85.4528 46.1785
L85.3923 46.2390
" />
<path d="M85.3923 46.2390
L85.2714 46.2994
" />
<path d="M85.2714 46.2994
L84.9085 46.2994
" />
<path d="M84.9085 46.2994
L84.7876 46.2390
" />
<path d="M84.7876 46.2390
L84.7271 46.1785
" />
<path d="M85.9366 45.0294
L86.7228 45.0294
" />
<path d="M86.7228 45.0294
L86.2994 45.5132
" />
<path d="M86.2994 45.5132
L86.4809 45.5132
" />
<path d="M86.4809 45.5132
L86.6018 45.5737
" />
<path d="M86.6018 45.5737
L86.6623 45.6342
" />
<path d="M86.6623 45.6342
L86.7228 45.7551
" />
<path d="M86.7228 45.7551
L86.7228 46.0575
" />
<path d="M86.7228 46.0575
L86.6623 46.1785
" />
<path d="M86.6623 46.1785
L86.6018 46.2390
" />
<path d="M86.6018 46.2390
L86.4809 46.2994
" />
<path d="M86.4809 46.2994
L86.1180 46.2994
" />
<path d="M86.1180 46.2994
L85.9971 46.2390
" />
<path d="M85.9971 46.2390
L85.9366 46.1785
" />
<path d="M87.5089 45.0294
L87.6299 45.0294
" />
<path d="M87.6299 45.0294
L87.7508 45.0899
" />
<path d="M87.7508 45.0899
L87.8113 45.1504
" />
<path d="M87.8113 45.1504
L87.8718 45.2713
" />
<path d="M87.8718 45.2713
L87.9323 45.5132
" />
<path d="M87.9323 45.5132
L87.9323 45.8156
" />
<path d="M87.9323 45.8156
L87.8718 46.0575
" />
<path d="M87.8718 46.0575
L87.8113 46.1785
" />
<path d="M87.8113 46.1785
L87.7508 46.2390
" />
<path d="M87.7508 46.2390
L87.6299 46.2994
" />
<path d="M87.6299 46.2994
L87.5089 46.2994
" />
<path d="M87.5089 46.2994
L87.3880 46.2390
" />
<path d="M87.3880 46.2390
L87.3275 46.1785
" />
<path d="M87.3275 46.1785
L87.2670 46.0575
" />
<path d="M87.2670 46.0575
L87.2066 45.8156
" />
<path d="M87.2066 45.8156
L87.2066 45.5132
" />
<path d="M87.2066 45.5132
L87.2670 45.2713
" />
<path d="M87.2670 45.2713
L87.3275 45.1504
" />
<path d="M87.3275 45.1504
L87.3880 45.0899
" />
<path d="M87.3880 45.0899
L87.5089 45.0294
" />
</g></g>
<g style="fill:#FFFFC2; fill-opacity:1.0000; stroke:none;">
<rect x="95.885000" y="45.720000" width="6.350000" height="7.620000" rx="0.000000" />
</g>
<g style="fill:none; 
stroke:#840000; stroke-width:0.1524; stroke-opacity:1; 
stroke-linecap:round; stroke-linejoin:round;">
<circle cx="97.0280" cy="49.5300" r="0.4572" /> 
<path style="fill:none; 
stroke:#840000; stroke-width:0.1524; stroke-opacity:1; 
stroke-linecap:round; stroke-linejoin:round;fill:none"
d="M 97.4090,49.2760
100.7110,47.2440
" /> 
<circle cx="101.0920" cy="46.9900" r="0.4572" /> 
<circle cx="101.0920" cy="52.0700" r="0.4572" /> 
<rect x="95.885000" y="45.720000" width="6.350000" height="7.620000" rx="0.000000" />
<path d="M96.5200 49.5300
L93.9800 49.5300
" />
</g>
<g style="fill:none; 
stroke:#A90000; stroke-width:0.1524; stroke-opacity:1; 
stroke-linecap:round; stroke-linejoin:round;">
<text x="95.2500" y="49.2760"
textLength="1.4127" font-size="1.6933" lengthAdjust="spacingAndGlyphs"
text-anchor="middle" opacity="0" stroke-opacity="0">2</text>
<g class="stroked-text"><desc>2</desc>
<path d="M94.8872 47.9635
L94.9476 47.9030
" />
<path d="M94.9476 47.9030
L95.0686 47.8425
" />
<path d="M95.0686 47.8425
L95.3710 47.8425
" />
<path d="M95.3710 47.8425
L95.4919 47.9030
" />
<path d="M95.4919 47.9030
L95.5524 47.9635
" />
<path d="M95.5524 47.9635
L95.6129 48.0844
" />
<path d="M95.6129 48.0844
L95.6129 48.2054
" />
<path d="M95.6129 48.2054
L95.5524 48.3868
" />
<path d="M95.5524 48.3868
L94.8267 49.1125
" />
<path d="M94.8267 49.1125
L95.6129 49.1125
" />
</g></g>
<g style="fill:none; 
stroke:#840000; stroke-width:0.1524; stroke-opacity:1; 
stroke-linecap:round; stroke-linejoin:round;">
<path d="M101.6000 46.9900
L104.1400 46.9900
" />
</g>
<g style="fill:none; 
stroke:#A90000; stroke-width:0.1524; stroke-opacity:1; 
stroke-linecap:round; stroke-linejoin:round;">
<text x="102.8700" y="46.7360"
textLength="1.4127" font-size="1.6933" lengthAdjust="spacingAndGlyphs"
text-anchor="middle" opacity="0" stroke-opacity="0">1</text>
<g class="stroked-text"><desc>1</desc>
<path d="M103.2329 46.5725
L102.5072 46.5725
" />
<path d="M102.8700 46.5725
L102.8700 45.3025
" />
<path d="M102.8700 45.3025
L102.7491 45.4840
" />
<path d="M102.7491 45.4840
L102.6281 45.6049
" />
<path d="M102.6281 45.6049
L102.5072 45.6654
" />
</g></g>
<g style="fill:none; 
stroke:#840000; stroke-width:0.1524; stroke-opacity:1; 
stroke-linecap:round; stroke-linejoin:round;">
<path d="M101.6000 52.0700
L104.1400 52.0700
" />
</g>
<g style="fill:none; 
stroke:#A90000; stroke-width:0.1524; stroke-opacity:1; 
stroke-linecap:round; stroke-linejoin:round;">
<text x="102.8700" y="51.8160"
textLength="1.4127" font-size="1.6933" lengthAdjust="spacingAndGlyphs"
text-anchor="middle" opacity="0" stroke-opacity="0">3</text>
<g class="stroked-text"><desc>3</desc>
<path d="M102.4467 50.3825
L103.2329 50.3825
" />
<path d="M103.2329 50.3825
L102.8095 50.8663
" />
<path d="M102.8095 50.8663
L102.9910 50.8663
" />
<path d="M102.9910 50.8663
L103.1119 50.9268
" />
<path d="M103.1119 50.9268
L103.1724 50.9873
" />
<path d="M103.1724 50.9873
L103.2329 51.1082
" />
<path d="M103.2329 51.1082
L103.2329 51.4106
" />
<path d="M103.2329 51.4106
L103.1724 51.5316
" />
<path d="M103.1724 51.5316
L103.1119 51.5921
" />
<path d="M103.1119 51.5921
L102.9910 51.6525
" />
<path d="M102.9910 51.6525
L102.6281 51.6525
" />
<path d="M102.6281 51.6525
L102.5072 51.5921
" />
<path d="M102.5072 51.5921
L102.4467 51.5316
" />
</g></g>
<g style="fill:none; 
stroke:#006464; stroke-width:0.1524; stroke-opacity:1; 
stroke-linecap:round; stroke-linejoin:round;">
<text x="99.0600" y="41.2750"
textLength="4.0736" font-size="1.6933" lengthAdjust="spacingAndGlyphs"
text-anchor="middle" opacity="0" stroke-opacity="0">SW1</text>
<g class="stroked-text"><desc>SW1</desc>
<path d="M97.3667 41.1591
L97.5481 41.2195
" />
<path d="M97.5481 41.2195
L97.8505 41.2195
" />
<path d="M97.8505 41.2195
L97.9714 41.1591
" />
<path d="M97.9714 41.1591
L98.0319 41.0986
" />
<path d="M98.0319 41.0986
L98.0924 40.9776
" />
<path d="M98.0924 40.9776
L98.0924 40.8567
" />
<path d="M98.0924 40.8567
L98.0319 40.7357
" />
<path d="M98.0319 40.7357
L97.9714 40.6752
" />
<path d="M97.9714 40.6752
L97.8505 40.6148
" />
<path d="M97.8505 40.6148
L97.6086 40.5543
" />
<path d="M97.6086 40.5543
L97.4876 40.4938
" />
<path d="M97.4876 40.4938
L97.4271 40.4333
" />
<path d="M97.4271 40.4333
L97.3667 40.3124
" />
<path d="M97.3667 40.3124
L97.3667 40.1914
" />
<path d="M97.3667 40.1914
L97.4271 40.0705
" />
<path d="M97.4271 40.0705
L97.4876 40.0100
" />
<path d="M97.4876 40.0100
L97.6086 39.9495
" />
<path d="M97.6086 39.9495
L97.9109 39.9495
" />
<path d="M97.9109 39.9495
L98.0924 40.0100
" />
<path d="M98.5157 39.9495
L98.8181 41.2195
" />
<path d="M98.8181 41.2195
L99.0600 40.3124
" />
<path d="M99.0600 40.3124
L99.3019 41.2195
" />
<path d="M99.3019 41.2195
L99.6043 39.9495
" />
<path d="M100.7533 41.2195
L100.0276 41.2195
" />
<path d="M100.3904 41.2195
L100.3904 39.9495
" />
<path d="M100.3904 39.9495
L100.2695 40.1310
" />
<path d="M100.2695 40.1310
L100.1485 40.2519
" />
<path d="M100.1485 40.2519
L100.0276 40.3124
" />
</g><text x="99.0600" y="43.8150"
textLength="8.5488" font-size="1.6933" lengthAdjust="spacingAndGlyphs"
text-anchor="middle" opacity="0" stroke-opacity="0">SW_SPDT</text>
<g class="stroked-text"><desc>SW_SPDT</desc>
<path d="M95.1291 43.6991
L95.3105 43.7595
" />
<path d="M95.3105 43.7595
L95.6129 43.7595
" />
<path d="M95.6129 43.7595
L95.7338 43.6991
" />
<path d="M95.7338 43.6991
L95.7943 43.6386
" />
<path d="M95.7943 43.6386
L95.8548 43.5176
" />
<path d="M95.8548 43.5176
L95.8548 43.3967
" />
<path d="M95.8548 43.3967
L95.7943 43.2757
" />
<path d="M95.7943 43.2757
L95.7338 43.2152
" />
<path d="M95.7338 43.2152
L95.6129 43.1548
" />
<path d="M95.6129 43.1548
L95.3710 43.0943
" />
<path d="M95.3710 43.0943
L95.2500 43.0338
" />
<path d="M95.2500 43.0338
L95.1895 42.9733
" />
<path d="M95.1895 42.9733
L95.1291 42.8524
" />
<path d="M95.1291 42.8524
L95.1291 42.7314
" />
<path d="M95.1291 42.7314
L95.1895 42.6105
" />
<path d="M95.1895 42.6105
L95.2500 42.5500
" />
<path d="M95.2500 42.5500
L95.3710 42.4895
" />
<path d="M95.3710 42.4895
L95.6733 42.4895
" />
<path d="M95.6733 42.4895
L95.8548 42.5500
" />
<path d="M96.2781 42.4895
L96.5805 43.7595
" />
<path d="M96.5805 43.7595
L96.8224 42.8524
" />
<path d="M96.8224 42.8524
L97.0643 43.7595
" />
<path d="M97.0643 43.7595
L97.3667 42.4895
" />
<path d="M97.5481 43.8805
L98.5157 43.8805
" />
<path d="M98.7576 43.6991
L98.9390 43.7595
" />
<path d="M98.9390 43.7595
L99.2414 43.7595
" />
<path d="M99.2414 43.7595
L99.3623 43.6991
" />
<path d="M99.3623 43.6991
L99.4228 43.6386
" />
<path d="M99.4228 43.6386
L99.4833 43.5176
" />
<path d="M99.4833 43.5176
L99.4833 43.3967
" />
<path d="M99.4833 43.3967
L99.4228 43.2757
" />
<path d="M99.4228 43.2757
L99.3623 43.2152
" />
<path d="M99.3623 43.2152
L99.2414 43.1548
" />
<path d="M99.2414 43.1548
L98.9995 43.0943
" />
<path d="M98.9995 43.0943
L98.8785 43.0338
" />
<path d="M98.8785 43.0338
L98.8180 42.9733
" />
<path d="M98.8180 42.9733
L98.7576 42.8524
" />
<path d="M98.7576 42.8524
L98.7576 42.7314
" />
<path d="M98.7576 42.7314
L98.8180 42.6105
" />
<path d="M98.8180 42.6105
L98.8785 42.5500
" />
<path d="M98.8785 42.5500
L98.9995 42.4895
" />
<path d="M98.9995 42.4895
L99.3018 42.4895
" />
<path d="M99.3018 42.4895
L99.4833 42.5500
" />
<path d="M100.0275 43.7595
L100.0275 42.4895
" />
<path d="M100.0275 42.4895
L100.5113 42.4895
" />
<path d="M100.5113 42.4895
L100.6323 42.5500
" />
<path d="M100.6323 42.5500
L100.6928 42.6105
" />
<path d="M100.6928 42.6105
L100.7532 42.7314
" />
<path d="M100.7532 42.7314
L100.7532 42.9129
" />
<path d="M100.7532 42.9129
L100.6928 43.0338
" />
<path d="M100.6928 43.0338
L100.6323 43.0943
" />
<path d="M100.6323 43.0943
L100.5113 43.1548
" />
<path d="M100.5113 43.1548
L100.0275 43.1548
" />
<path d="M101.2975 43.7595
L101.2975 42.4895
" />
<path d="M101.2975 42.4895
L101.5999 42.4895
" />
<path d="M101.5999 42.4895
L101.7813 42.5500
" />
<path d="M101.7813 42.5500
L101.9023 42.6710
" />
<path d="M101.9023 42.6710
L101.9628 42.7919
" />
<path d="M101.9628 42.7919
L102.0232 43.0338
" />
<path d="M102.0232 43.0338
L102.0232 43.2152
" />
<path d="M102.0232 43.2152
L101.9628 43.4571
" />
<path d="M101.9628 43.4571
L101.9023 43.5781
" />
<path d="M101.9023 43.5781
L101.7813 43.6991
" />
<path d="M101.7813 43.6991
L101.5999 43.7595
" />
<path d="M101.5999 43.7595
L101.2975 43.7595
" />
<path d="M102.3861 42.4895
L103.1118 42.4895
" />
<path d="M102.7490 43.7595
L102.7490 42.4895
" />
</g></g>
<g style="fill:none; 
stroke:#840084; stroke-width:0.1524; stroke-opacity:1; 
stroke-linecap:round; stroke-linejoin:round;">
<text x="98.8060" y="38.7350"
textLength="12.7218" font-size="1.6933" lengthAdjust="spacingAndGlyphs"
text-anchor="middle" opacity="0" stroke-opacity="0">Power switch</text>
<g class="stroked-text"><desc>Power switch</desc>
<path d="M92.8490 38.6795
L92.8490 37.4095
" />
<path d="M92.8490 37.4095
L93.3328 37.4095
" />
<path d="M93.3328 37.4095
L93.4538 37.4700
" />
<path d="M93.4538 37.4700
L93.5143 37.5305
" />
<path d="M93.5143 37.5305
L93.5747 37.6514
" />
<path d="M93.5747 37.6514
L93.5747 37.8329
" />
<path d="M93.5747 37.8329
L93.5143 37.9538
" />
<path d="M93.5143 37.9538
L93.4538 38.0143
" />
<path d="M93.4538 38.0143
L93.3328 38.0748
" />
<path d="M93.3328 38.0748
L92.8490 38.0748
" />
<path d="M94.3005 38.6795
L94.1795 38.6191
" />
<path d="M94.1795 38.6191
L94.1190 38.5586
" />
<path d="M94.1190 38.5586
L94.0586 38.4376
" />
<path d="M94.0586 38.4376
L94.0586 38.0748
" />
<path d="M94.0586 38.0748
L94.1190 37.9538
" />
<path d="M94.1190 37.9538
L94.1795 37.8933
" />
<path d="M94.1795 37.8933
L94.3005 37.8329
" />
<path d="M94.3005 37.8329
L94.4819 37.8329
" />
<path d="M94.4819 37.8329
L94.6028 37.8933
" />
<path d="M94.6028 37.8933
L94.6633 37.9538
" />
<path d="M94.6633 37.9538
L94.7238 38.0748
" />
<path d="M94.7238 38.0748
L94.7238 38.4376
" />
<path d="M94.7238 38.4376
L94.6633 38.5586
" />
<path d="M94.6633 38.5586
L94.6028 38.6191
" />
<path d="M94.6028 38.6191
L94.4819 38.6795
" />
<path d="M94.4819 38.6795
L94.3005 38.6795
" />
<path d="M95.1471 37.8329
L95.3890 38.6795
" />
<path d="M95.3890 38.6795
L95.6309 38.0748
" />
<path d="M95.6309 38.0748
L95.8728 38.6795
" />
<path d="M95.8728 38.6795
L96.1147 37.8329
" />
<path d="M97.0823 38.6191
L96.9614 38.6795
" />
<path d="M96.9614 38.6795
L96.7195 38.6795
" />
<path d="M96.7195 38.6795
L96.5985 38.6191
" />
<path d="M96.5985 38.6191
L96.5381 38.4981
" />
<path d="M96.5381 38.4981
L96.5381 38.0143
" />
<path d="M96.5381 38.0143
L96.5985 37.8933
" />
<path d="M96.5985 37.8933
L96.7195 37.8329
" />
<path d="M96.7195 37.8329
L96.9614 37.8329
" />
<path d="M96.9614 37.8329
L97.0823 37.8933
" />
<path d="M97.0823 37.8933
L97.1428 38.0143
" />
<path d="M97.1428 38.0143
L97.1428 38.1352
" />
<path d="M97.1428 38.1352
L96.5381 38.2562
" />
<path d="M97.6871 38.6795
L97.6871 37.8329
" />
<path d="M97.6871 38.0748
L97.7476 37.9538
" />
<path d="M97.7476 37.9538
L97.8081 37.8933
" />
<path d="M97.8081 37.8933
L97.9290 37.8329
" />
<path d="M97.9290 37.8329
L98.0500 37.8329
" />
<path d="M99.3805 38.6191
L99.5014 38.6795
" />
<path d="M99.5014 38.6795
L99.7433 38.6795
" />
<path d="M99.7433 38.6795
L99.8643 38.6191
" />
<path d="M99.8643 38.6191
L99.9247 38.4981
" />
<path d="M99.9247 38.4981
L99.9247 38.4376
" />
<path d="M99.9247 38.4376
L99.8643 38.3167
" />
<path d="M99.8643 38.3167
L99.7433 38.2562
" />
<path d="M99.7433 38.2562
L99.5619 38.2562
" />
<path d="M99.5619 38.2562
L99.4409 38.1957
" />
<path d="M99.4409 38.1957
L99.3805 38.0748
" />
<path d="M99.3805 38.0748
L99.3805 38.0143
" />
<path d="M99.3805 38.0143
L99.4409 37.8933
" />
<path d="M99.4409 37.8933
L99.5619 37.8329
" />
<path d="M99.5619 37.8329
L99.7433 37.8329
" />
<path d="M99.7433 37.8329
L99.8643 37.8933
" />
<path d="M100.3481 37.8329
L100.5900 38.6795
" />
<path d="M100.5900 38.6795
L100.8319 38.0748
" />
<path d="M100.8319 38.0748
L101.0738 38.6795
" />
<path d="M101.0738 38.6795
L101.3157 37.8329
" />
<path d="M101.7995 38.6795
L101.7995 37.8329
" />
<path d="M101.7995 37.4095
L101.7391 37.4700
" />
<path d="M101.7391 37.4700
L101.7995 37.5305
" />
<path d="M101.7995 37.5305
L101.8600 37.4700
" />
<path d="M101.8600 37.4700
L101.7995 37.4095
" />
<path d="M101.7995 37.4095
L101.7995 37.5305
" />
<path d="M102.2229 37.8329
L102.7067 37.8329
" />
<path d="M102.4043 37.4095
L102.4043 38.4981
" />
<path d="M102.4043 38.4981
L102.4648 38.6191
" />
<path d="M102.4648 38.6191
L102.5858 38.6795
" />
<path d="M102.5858 38.6795
L102.7067 38.6795
" />
<path d="M103.6743 38.6191
L103.5534 38.6795
" />
<path d="M103.5534 38.6795
L103.3115 38.6795
" />
<path d="M103.3115 38.6795
L103.1905 38.6191
" />
<path d="M103.1905 38.6191
L103.1300 38.5586
" />
<path d="M103.1300 38.5586
L103.0696 38.4376
" />
<path d="M103.0696 38.4376
L103.0696 38.0748
" />
<path d="M103.0696 38.0748
L103.1300 37.9538
" />
<path d="M103.1300 37.9538
L103.1905 37.8933
" />
<path d="M103.1905 37.8933
L103.3115 37.8329
" />
<path d="M103.3115 37.8329
L103.5534 37.8329
" />
<path d="M103.5534 37.8329
L103.6743 37.8933
" />
<path d="M104.2186 38.6795
L104.2186 37.4095
" />
<path d="M104.7629 38.6795
L104.7629 38.0143
" />
<path d="M104.7629 38.0143
L104.7024 37.8933
" />
<path d="M104.7024 37.8933
L104.5815 37.8329
" />
<path d="M104.5815 37.8329
L104.4001 37.8329
" />
<path d="M104.4001 37.8329
L104.2791 37.8933
" />
<path d="M104.2791 37.8933
L104.2186 37.9538
" />
</g><path style="fill:none; 
stroke:#840000; stroke-width:0.1524; stroke-opacity:1; 
stroke-linecap:round; stroke-linejoin:round;fill:none"
d="M 83.1850,85.7250
84.4550,84.4550
" /> 
<path style="fill:none; 
stroke:#840000; stroke-width:0.1524; stroke-opacity:1; 
stroke-linecap:round; stroke-linejoin:round;fill:none"
d="M 88.2650,79.3750
89.5350,79.3750
89.5350,80.6450
" /> 
<path style="fill:none; 
stroke:#840000; stroke-width:0.1524; stroke-opacity:1; 
stroke-linecap:round; stroke-linejoin:round;fill:none"
d="M 88.2650,80.6450
89.5350,79.3750
" /> 
</g>
<g style="fill:none; 
stroke:#840000; stroke-width:0.2540; stroke-opacity:1; 
stroke-linecap:round; stroke-linejoin:round;">
<circle cx="86.3600" cy="82.5500" r="2.5400" /> 
<path style="fill:none; 
stroke:#840000; stroke-width:0.1524; stroke-opacity:1; 
stroke-linecap:round; stroke-linejoin:round;fill:none"
d="M 86.6140,78.7400
87.1220,78.7400
" /> 
<path style="fill:none; 
stroke:#840000; stroke-width:0.1524; stroke-opacity:1; 
stroke-linecap:round; stroke-linejoin:round;fill:none"
d="M 86.8680,78.4860
86.8680,78.9940
" /> 
</g>
<g style="fill:none; 
stroke:#840000; stroke-width:0.1524; stroke-opacity:1; 
stroke-linecap:round; stroke-linejoin:round;">
<text x="86.3600" y="83.8200"
textLength="2.1263" font-size="3.3866" lengthAdjust="spacingAndGlyphs"
text-anchor="middle" opacity="0" stroke-opacity="0">V</text>
<g class="stroked-text"><desc>V</desc>
<path d="M85.5134 81.1770
L86.3600 83.7170
" />
<path d="M86.3600 83.7170
L87.2067 81.1770
" />
</g><path d="M86.3600 80.0100
L86.3600 77.4700
" />
<path d="M86.3600 85.0900
L86.3600 87.6300
" />
</g>
<g style="fill:none; 
stroke:#006464; stroke-width:0.1524; stroke-opacity:1; 
stroke-linecap:round; stroke-linejoin:round;">
<text x="92.7909" y="81.4704"
textLength="5.2226" font-size="1.6933" lengthAdjust="spacingAndGlyphs"
text-anchor="middle" opacity="0" stroke-opacity="0">MES1</text>
<g class="stroked-text"><desc>MES1</desc>
<path d="M90.5835 81.4149
L90.5835 80.1449
" />
<path d="M90.5835 80.1449
L91.0069 81.0521
" />
<path d="M91.0069 81.0521
L91.4302 80.1449
" />
<path d="M91.4302 80.1449
L91.4302 81.4149
" />
<path d="M92.0349 80.7497
L92.4583 80.7497
" />
<path d="M92.6397 81.4149
L92.0349 81.4149
" />
<path d="M92.0349 81.4149
L92.0349 80.1449
" />
<path d="M92.0349 80.1449
L92.6397 80.1449
" />
<path d="M93.1235 81.3545
L93.3049 81.4149
" />
<path d="M93.3049 81.4149
L93.6073 81.4149
" />
<path d="M93.6073 81.4149
L93.7282 81.3545
" />
<path d="M93.7282 81.3545
L93.7887 81.2940
" />
<path d="M93.7887 81.2940
L93.8492 81.1730
" />
<path d="M93.8492 81.1730
L93.8492 81.0521
" />
<path d="M93.8492 81.0521
L93.7887 80.9311
" />
<path d="M93.7887 80.9311
L93.7282 80.8706
" />
<path d="M93.7282 80.8706
L93.6073 80.8102
" />
<path d="M93.6073 80.8102
L93.3654 80.7497
" />
<path d="M93.3654 80.7497
L93.2444 80.6892
" />
<path d="M93.2444 80.6892
L93.1839 80.6287
" />
<path d="M93.1839 80.6287
L93.1235 80.5078
" />
<path d="M93.1235 80.5078
L93.1235 80.3868
" />
<path d="M93.1235 80.3868
L93.1839 80.2659
" />
<path d="M93.1839 80.2659
L93.2444 80.2054
" />
<path d="M93.2444 80.2054
L93.3654 80.1449
" />
<path d="M93.3654 80.1449
L93.6677 80.1449
" />
<path d="M93.6677 80.1449
L93.8492 80.2054
" />
<path d="M95.0587 81.4149
L94.3330 81.4149
" />
<path d="M94.6958 81.4149
L94.6958 80.1449
" />
<path d="M94.6958 80.1449
L94.5749 80.3264
" />
<path d="M94.5749 80.3264
L94.4539 80.4473
" />
<path d="M94.4539 80.4473
L94.3330 80.5078
" />
</g><text x="96.5404" y="84.0104"
textLength="12.7217" font-size="1.6933" lengthAdjust="spacingAndGlyphs"
text-anchor="middle" opacity="0" stroke-opacity="0">Voltmeter_DC</text>
<g class="stroked-text"><desc>Voltmeter_DC</desc>
<path d="M90.4021 82.6849
L90.8254 83.9549
" />
<path d="M90.8254 83.9549
L91.2488 82.6849
" />
<path d="M91.8536 83.9549
L91.7326 83.8945
" />
<path d="M91.7326 83.8945
L91.6721 83.8340
" />
<path d="M91.6721 83.8340
L91.6117 83.7130
" />
<path d="M91.6117 83.7130
L91.6117 83.3502
" />
<path d="M91.6117 83.3502
L91.6721 83.2292
" />
<path d="M91.6721 83.2292
L91.7326 83.1687
" />
<path d="M91.7326 83.1687
L91.8536 83.1083
" />
<path d="M91.8536 83.1083
L92.0350 83.1083
" />
<path d="M92.0350 83.1083
L92.1559 83.1687
" />
<path d="M92.1559 83.1687
L92.2164 83.2292
" />
<path d="M92.2164 83.2292
L92.2769 83.3502
" />
<path d="M92.2769 83.3502
L92.2769 83.7130
" />
<path d="M92.2769 83.7130
L92.2164 83.8340
" />
<path d="M92.2164 83.8340
L92.1559 83.8945
" />
<path d="M92.1559 83.8945
L92.0350 83.9549
" />
<path d="M92.0350 83.9549
L91.8536 83.9549
" />
<path d="M93.0026 83.9549
L92.8816 83.8945
" />
<path d="M92.8816 83.8945
L92.8211 83.7735
" />
<path d="M92.8211 83.7735
L92.8211 82.6849
" />
<path d="M93.3049 83.1083
L93.7887 83.1083
" />
<path d="M93.4863 82.6849
L93.4863 83.7735
" />
<path d="M93.4863 83.7735
L93.5468 83.8945
" />
<path d="M93.5468 83.8945
L93.6678 83.9549
" />
<path d="M93.6678 83.9549
L93.7887 83.9549
" />
<path d="M94.2120 83.9549
L94.2120 83.1083
" />
<path d="M94.2120 83.2292
L94.2725 83.1687
" />
<path d="M94.2725 83.1687
L94.3935 83.1083
" />
<path d="M94.3935 83.1083
L94.5749 83.1083
" />
<path d="M94.5749 83.1083
L94.6958 83.1687
" />
<path d="M94.6958 83.1687
L94.7563 83.2897
" />
<path d="M94.7563 83.2897
L94.7563 83.9549
" />
<path d="M94.7563 83.2897
L94.8168 83.1687
" />
<path d="M94.8168 83.1687
L94.9377 83.1083
" />
<path d="M94.9377 83.1083
L95.1192 83.1083
" />
<path d="M95.1192 83.1083
L95.2401 83.1687
" />
<path d="M95.2401 83.1687
L95.3006 83.2897
" />
<path d="M95.3006 83.2897
L95.3006 83.9549
" />
<path d="M96.3891 83.8945
L96.2682 83.9549
" />
<path d="M96.2682 83.9549
L96.0263 83.9549
" />
<path d="M96.0263 83.9549
L95.9053 83.8945
" />
<path d="M95.9053 83.8945
L95.8449 83.7735
" />
<path d="M95.8449 83.7735
L95.8449 83.2897
" />
<path d="M95.8449 83.2897
L95.9053 83.1687
" />
<path d="M95.9053 83.1687
L96.0263 83.1083
" />
<path d="M96.0263 83.1083
L96.2682 83.1083
" />
<path d="M96.2682 83.1083
L96.3891 83.1687
" />
<path d="M96.3891 83.1687
L96.4496 83.2897
" />
<path d="M96.4496 83.2897
L96.4496 83.4106
" />
<path d="M96.4496 83.4106
L95.8449 83.5316
" />
<path d="M96.8125 83.1083
L97.2963 83.1083
" />
<path d="M96.9939 82.6849
L96.9939 83.7735
" />
<path d="M96.9939 83.7735
L97.0544 83.8945
" />
<path d="M97.0544 83.8945
L97.1754 83.9549
" />
<path d="M97.1754 83.9549
L97.2963 83.9549
" />
<path d="M98.2034 83.8945
L98.0825 83.9549
" />
<path d="M98.0825 83.9549
L97.8406 83.9549
" />
<path d="M97.8406 83.9549
L97.7196 83.8945
" />
<path d="M97.7196 83.8945
L97.6592 83.7735
" />
<path d="M97.6592 83.7735
L97.6592 83.2897
" />
<path d="M97.6592 83.2897
L97.7196 83.1687
" />
<path d="M97.7196 83.1687
L97.8406 83.1083
" />
<path d="M97.8406 83.1083
L98.0825 83.1083
" />
<path d="M98.0825 83.1083
L98.2034 83.1687
" />
<path d="M98.2034 83.1687
L98.2639 83.2897
" />
<path d="M98.2639 83.2897
L98.2639 83.4106
" />
<path d="M98.2639 83.4106
L97.6592 83.5316
" />
<path d="M98.8082 83.9549
L98.8082 83.1083
" />
<path d="M98.8082 83.3502
L98.8687 83.2292
" />
<path d="M98.8687 83.2292
L98.9292 83.1687
" />
<path d="M98.9292 83.1687
L99.0501 83.1083
" />
<path d="M99.0501 83.1083
L99.1711 83.1083
" />
<path d="M99.2921 84.0759
L100.2597 84.0759
" />
<path d="M100.5620 83.9549
L100.5620 82.6849
" />
<path d="M100.5620 82.6849
L100.8644 82.6849
" />
<path d="M100.8644 82.6849
L101.0458 82.7454
" />
<path d="M101.0458 82.7454
L101.1668 82.8664
" />
<path d="M101.1668 82.8664
L101.2273 82.9873
" />
<path d="M101.2273 82.9873
L101.2877 83.2292
" />
<path d="M101.2877 83.2292
L101.2877 83.4106
" />
<path d="M101.2877 83.4106
L101.2273 83.6525
" />
<path d="M101.2273 83.6525
L101.1668 83.7735
" />
<path d="M101.1668 83.7735
L101.0458 83.8945
" />
<path d="M101.0458 83.8945
L100.8644 83.9549
" />
<path d="M100.8644 83.9549
L100.5620 83.9549
" />
<path d="M102.5577 83.8340
L102.4973 83.8945
" />
<path d="M102.4973 83.8945
L102.3158 83.9549
" />
<path d="M102.3158 83.9549
L102.1949 83.9549
" />
<path d="M102.1949 83.9549
L102.0135 83.8945
" />
<path d="M102.0135 83.8945
L101.8925 83.7735
" />
<path d="M101.8925 83.7735
L101.8320 83.6525
" />
<path d="M101.8320 83.6525
L101.7716 83.4106
" />
<path d="M101.7716 83.4106
L101.7716 83.2292
" />
<path d="M101.7716 83.2292
L101.8320 82.9873
" />
<path d="M101.8320 82.9873
L101.8925 82.8664
" />
<path d="M101.8925 82.8664
L102.0135 82.7454
" />
<path d="M102.0135 82.7454
L102.1949 82.6849
" />
<path d="M102.1949 82.6849
L102.3158 82.6849
" />
<path d="M102.3158 82.6849
L102.4973 82.7454
" />
<path d="M102.4973 82.7454
L102.5577 82.8059
" />
</g><path style="fill:none; 
stroke:#840000; stroke-width:0.1524; stroke-opacity:1; 
stroke-linecap:round; stroke-linejoin:round;fill:none"
d="M 93.9800,75.4380
95.2500,76.2000
" /> 
<path style="fill:none; 
stroke:#840000; stroke-width:0.1524; stroke-opacity:1; 
stroke-linecap:round; stroke-linejoin:round;fill:none"
d="M 95.2500,76.2000
93.9800,76.9620
" /> 
<path style="fill:none; 
stroke:#840000; stroke-width:0.1524; stroke-opacity:1; 
stroke-linecap:round; stroke-linejoin:round;fill:none"
d="M 92.7100,76.2000
95.2500,76.2000
" /> 
</g>
<g style="fill:none; 
stroke:#840000; stroke-width:0.1524; stroke-opacity:1; 
stroke-linecap:round; stroke-linejoin:round;">
<path d="M92.7100 76.2000
L92.7100 76.2000
" />
</g>
<g style="fill:none; 
stroke:#006464; stroke-width:0.1524; stroke-opacity:1; 
stroke-linecap:round; stroke-linejoin:round;">
<text x="99.1712" y="76.8349"
textLength="5.2832" font-size="1.6933" lengthAdjust="spacingAndGlyphs"
text-anchor="middle" opacity="0" stroke-opacity="0">+12V</text>
<g class="stroked-text"><desc>+12V</desc>
<path d="M96.9335 76.2956
L97.9012 76.2956
" />
<path d="M97.4173 76.7794
L97.4173 75.8118
" />
<path d="M99.1712 76.7794
L98.4455 76.7794
" />
<path d="M98.8083 76.7794
L98.8083 75.5094
" />
<path d="M98.8083 75.5094
L98.6874 75.6909
" />
<path d="M98.6874 75.6909
L98.5664 75.8118
" />
<path d="M98.5664 75.8118
L98.4455 75.8723
" />
<path d="M99.6550 75.6304
L99.7154 75.5699
" />
<path d="M99.7154 75.5699
L99.8364 75.5094
" />
<path d="M99.8364 75.5094
L100.1388 75.5094
" />
<path d="M100.1388 75.5094
L100.2597 75.5699
" />
<path d="M100.2597 75.5699
L100.3202 75.6304
" />
<path d="M100.3202 75.6304
L100.3807 75.7513
" />
<path d="M100.3807 75.7513
L100.3807 75.8723
" />
<path d="M100.3807 75.8723
L100.3202 76.0537
" />
<path d="M100.3202 76.0537
L99.5945 76.7794
" />
<path d="M99.5945 76.7794
L100.3807 76.7794
" />
<path d="M100.7435 75.5094
L101.1668 76.7794
" />
<path d="M101.1668 76.7794
L101.5902 75.5094
" />
</g><path style="fill:none; 
stroke:#840000; stroke-width:0.1524; stroke-opacity:1; 
stroke-linecap:round; stroke-linejoin:round;fill:none"
d="M 107.9500,91.4400
107.9500,92.7100
109.2200,92.7100
107.9500,93.9800
106.6800,92.7100
107.9500,92.7100
" /> 
</g>
<g style="fill:none; 
stroke:#840000; stroke-width:0.1524; stroke-opacity:1; 
stroke-linecap:round; stroke-linejoin:round;">
<path d="M107.9500 91.4400
L107.9500 91.4400
" />
</g>
<g style="fill:none; 
stroke:#006464; stroke-width:0.1524; stroke-opacity:1; 
stroke-linecap:round; stroke-linejoin:round;">
<text x="107.9500" y="97.1550"
textLength="4.0737" font-size="1.6933" lengthAdjust="spacingAndGlyphs"
text-anchor="middle" opacity="0" stroke-opacity="0">GND</text>
<g class="stroked-text"><desc>GND</desc>
<path d="M106.9824 95.8900
L106.8614 95.8295
" />
<path d="M106.8614 95.8295
L106.6800 95.8295
" />
<path d="M106.6800 95.8295
L106.4986 95.8900
" />
<path d="M106.4986 95.8900
L106.3776 96.0110
" />
<path d="M106.3776 96.0110
L106.3171 96.1319
" />
<path d="M106.3171 96.1319
L106.2567 96.3738
" />
<path d="M106.2567 96.3738
L106.2567 96.5552
" />
<path d="M106.2567 96.5552
L106.3171 96.7971
" />
<path d="M106.3171 96.7971
L106.3776 96.9181
" />
<path d="M106.3776 96.9181
L106.4986 97.0391
" />
<path d="M106.4986 97.0391
L106.6800 97.0995
" />
<path d="M106.6800 97.0995
L106.8009 97.0995
" />
<path d="M106.8009 97.0995
L106.9824 97.0391
" />
<path d="M106.9824 97.0391
L107.0428 96.9786
" />
<path d="M107.0428 96.9786
L107.0428 96.5552
" />
<path d="M107.0428 96.5552
L106.8009 96.5552
" />
<path d="M107.5871 97.0995
L107.5871 95.8295
" />
<path d="M107.5871 95.8295
L108.3128 97.0995
" />
<path d="M108.3128 97.0995
L108.3128 95.8295
" />
<path d="M108.9176 97.0995
L108.9176 95.8295
" />
<path d="M108.9176 95.8295
L109.2200 95.8295
" />
<path d="M109.2200 95.8295
L109.4014 95.8900
" />
<path d="M109.4014 95.8900
L109.5224 96.0110
" />
<path d="M109.5224 96.0110
L109.5829 96.1319
" />
<path d="M109.5829 96.1319
L109.6433 96.3738
" />
<path d="M109.6433 96.3738
L109.6433 96.5552
" />
<path d="M109.6433 96.5552
L109.5829 96.7971
" />
<path d="M109.5829 96.7971
L109.5224 96.9181
" />
<path d="M109.5224 96.9181
L109.4014 97.0391
" />
<path d="M109.4014 97.0391
L109.2200 97.0995
" />
<path d="M109.2200 97.0995
L108.9176 97.0995
" />
</g></g>
<g style="fill:none; 
stroke:#840000; stroke-width:0.2540; stroke-opacity:1; 
stroke-linecap:round; stroke-linejoin:round;">
<rect x="88.900000" y="63.754000" width="5.080000" height="2.032000" rx="0.000000" />
</g>
<g style="fill:none; 
stroke:#840000; stroke-width:0.1524; stroke-opacity:1; 
stroke-linecap:round; stroke-linejoin:round;">
<path d="M88.9000 64.7700
L87.6300 64.7700
" />
<path d="M93.9800 64.7700
L95.2500 64.7700
" />
</g>
<g style="fill:none; 
stroke:#006464; stroke-width:0.1524; stroke-opacity:1; 
stroke-linecap:round; stroke-linejoin:round;">
<text x="91.4399" y="59.0549"
textLength="2.6827" font-size="1.6933" lengthAdjust="spacingAndGlyphs"
text-anchor="middle" opacity="0" stroke-opacity="0">R2</text>
<g class="stroked-text"><desc>R2</desc>
<path d="M91.2282 58.9994
L90.8049 58.3947
" />
<path d="M90.5025 58.9994
L90.5025 57.7294
" />
<path d="M90.5025 57.7294
L90.9863 57.7294
" />
<path d="M90.9863 57.7294
L91.1073 57.7899
" />
<path d="M91.1073 57.7899
L91.1678 57.8504
" />
<path d="M91.1678 57.8504
L91.2282 57.9713
" />
<path d="M91.2282 57.9713
L91.2282 58.1528
" />
<path d="M91.2282 58.1528
L91.1678 58.2737
" />
<path d="M91.1678 58.2737
L91.1073 58.3342
" />
<path d="M91.1073 58.3342
L90.9863 58.3947
" />
<path d="M90.9863 58.3947
L90.5025 58.3947
" />
<path d="M91.7121 57.8504
L91.7725 57.7899
" />
<path d="M91.7725 57.7899
L91.8935 57.7294
" />
<path d="M91.8935 57.7294
L92.1959 57.7294
" />
<path d="M92.1959 57.7294
L92.3168 57.7899
" />
<path d="M92.3168 57.7899
L92.3773 57.8504
" />
<path d="M92.3773 57.8504
L92.4378 57.9713
" />
<path d="M92.4378 57.9713
L92.4378 58.0923
" />
<path d="M92.4378 58.0923
L92.3773 58.2737
" />
<path d="M92.3773 58.2737
L91.6516 58.9994
" />
<path d="M91.6516 58.9994
L92.4378 58.9994
" />
</g><text x="91.4399" y="61.5949"
textLength="3.8317" font-size="1.6933" lengthAdjust="spacingAndGlyphs"
text-anchor="middle" opacity="0" stroke-opacity="0">510</text>
<g class="stroked-text"><desc>510</desc>
<path d="M90.5328 60.2694
L89.9280 60.2694
" />
<path d="M89.9280 60.2694
L89.8676 60.8742
" />
<path d="M89.8676 60.8742
L89.9280 60.8137
" />
<path d="M89.9280 60.8137
L90.0490 60.7532
" />
<path d="M90.0490 60.7532
L90.3514 60.7532
" />
<path d="M90.3514 60.7532
L90.4723 60.8137
" />
<path d="M90.4723 60.8137
L90.5328 60.8742
" />
<path d="M90.5328 60.8742
L90.5933 60.9951
" />
<path d="M90.5933 60.9951
L90.5933 61.2975
" />
<path d="M90.5933 61.2975
L90.5328 61.4185
" />
<path d="M90.5328 61.4185
L90.4723 61.4790
" />
<path d="M90.4723 61.4790
L90.3514 61.5394
" />
<path d="M90.3514 61.5394
L90.0490 61.5394
" />
<path d="M90.0490 61.5394
L89.9280 61.4790
" />
<path d="M89.9280 61.4790
L89.8676 61.4185
" />
<path d="M91.8028 61.5394
L91.0771 61.5394
" />
<path d="M91.4399 61.5394
L91.4399 60.2694
" />
<path d="M91.4399 60.2694
L91.3190 60.4509
" />
<path d="M91.3190 60.4509
L91.1980 60.5718
" />
<path d="M91.1980 60.5718
L91.0771 60.6323
" />
<path d="M92.5889 60.2694
L92.7099 60.2694
" />
<path d="M92.7099 60.2694
L92.8308 60.3299
" />
<path d="M92.8308 60.3299
L92.8913 60.3904
" />
<path d="M92.8913 60.3904
L92.9518 60.5113
" />
<path d="M92.9518 60.5113
L93.0123 60.7532
" />
<path d="M93.0123 60.7532
L93.0123 61.0556
" />
<path d="M93.0123 61.0556
L92.9518 61.2975
" />
<path d="M92.9518 61.2975
L92.8913 61.4185
" />
<path d="M92.8913 61.4185
L92.8308 61.4790
" />
<path d="M92.8308 61.4790
L92.7099 61.5394
" />
<path d="M92.7099 61.5394
L92.5889 61.5394
" />
<path d="M92.5889 61.5394
L92.4680 61.4790
" />
<path d="M92.4680 61.4790
L92.4075 61.4185
" />
<path d="M92.4075 61.4185
L92.3470 61.2975
" />
<path d="M92.3470 61.2975
L92.2866 61.0556
" />
<path d="M92.2866 61.0556
L92.2866 60.7532
" />
<path d="M92.2866 60.7532
L92.3470 60.5113
" />
<path d="M92.3470 60.5113
L92.4075 60.3904
" />
<path d="M92.4075 60.3904
L92.4680 60.3299
" />
<path d="M92.4680 60.3299
L92.5889 60.2694
" />
</g><path style="fill:none; 
stroke:#840000; stroke-width:0.1524; stroke-opacity:1; 
stroke-linecap:round; stroke-linejoin:round;fill:none"
d="M 105.9180,64.0080
107.4420,62.4840
106.6800,62.4840
107.4420,62.4840
107.4420,63.2460
" /> 
<path style="fill:none; 
stroke:#840000; stroke-width:0.1524; stroke-opacity:1; 
stroke-linecap:round; stroke-linejoin:round;fill:none"
d="M 104.6480,64.0080
106.1720,62.4840
105.4100,62.4840
106.1720,62.4840
106.1720,63.2460
" /> 
<path style="fill:none; 
stroke:#840000; stroke-width:0.1524; stroke-opacity:1; 
stroke-linecap:round; stroke-linejoin:round;fill:none"
d="M 104.1400,64.7700
101.6000,64.7700
" /> 
<path style="fill:none; 
stroke:#840000; stroke-width:0.2540; stroke-opacity:1; 
stroke-linecap:round; stroke-linejoin:round;fill:none"
d="M 104.1400,63.5000
104.1400,66.0400
" /> 
<path style="fill:none; 
stroke:#840000; stroke-width:0.2540; stroke-opacity:1; 
stroke-linecap:round; stroke-linejoin:round;fill:none"
d="M 101.6000,63.5000
101.6000,66.0400
104.1400,64.7700
Z" /> 
</g>
<g style="fill:none; 
stroke:#840000; stroke-width:0.1524; stroke-opacity:1; 
stroke-linecap:round; stroke-linejoin:round;">
<path d="M104.1400 64.7700
L106.6800 64.7700
" />
<path d="M101.6000 64.7700
L99.0600 64.7700
" />
</g>
<g style="fill:none; 
stroke:#006464; stroke-width:0.1524; stroke-opacity:1; 
stroke-linecap:round; stroke-linejoin:round;">
<text x="104.4574" y="57.7849"
textLength="2.6827" font-size="1.6933" lengthAdjust="spacingAndGlyphs"
text-anchor="middle" opacity="0" stroke-opacity="0">D1</text>
<g class="stroked-text"><desc>D1</desc>
<path d="M103.5200 57.7294
L103.5200 56.4594
" />
<path d="M103.5200 56.4594
L103.8224 56.4594
" />
<path d="M103.8224 56.4594
L104.0038 56.5199
" />
<path d="M104.0038 56.5199
L104.1248 56.6409
" />
<path d="M104.1248 56.6409
L104.1853 56.7618
" />
<path d="M104.1853 56.7618
L104.2457 57.0037
" />
<path d="M104.2457 57.0037
L104.2457 57.1851
" />
<path d="M104.2457 57.1851
L104.1853 57.4270
" />
<path d="M104.1853 57.4270
L104.1248 57.5480
" />
<path d="M104.1248 57.5480
L104.0038 57.6690
" />
<path d="M104.0038 57.6690
L103.8224 57.7294
" />
<path d="M103.8224 57.7294
L103.5200 57.7294
" />
<path d="M105.4553 57.7294
L104.7296 57.7294
" />
<path d="M105.0924 57.7294
L105.0924 56.4594
" />
<path d="M105.0924 56.4594
L104.9715 56.6409
" />
<path d="M104.9715 56.6409
L104.8505 56.7618
" />
<path d="M104.8505 56.7618
L104.7296 56.8223
" />
</g><text x="104.4574" y="60.3249"
textLength="3.6503" font-size="1.6933" lengthAdjust="spacingAndGlyphs"
text-anchor="middle" opacity="0" stroke-opacity="0">LED</text>
<g class="stroked-text"><desc>LED</desc>
<path d="M103.6410 60.2694
L103.0362 60.2694
" />
<path d="M103.0362 60.2694
L103.0362 58.9994
" />
<path d="M104.0643 59.6042
L104.4877 59.6042
" />
<path d="M104.6691 60.2694
L104.0643 60.2694
" />
<path d="M104.0643 60.2694
L104.0643 58.9994
" />
<path d="M104.0643 58.9994
L104.6691 58.9994
" />
<path d="M105.2133 60.2694
L105.2133 58.9994
" />
<path d="M105.2133 58.9994
L105.5157 58.9994
" />
<path d="M105.5157 58.9994
L105.6971 59.0599
" />
<path d="M105.6971 59.0599
L105.8181 59.1809
" />
<path d="M105.8181 59.1809
L105.8786 59.3018
" />
<path d="M105.8786 59.3018
L105.9390 59.5437
" />
<path d="M105.9390 59.5437
L105.9390 59.7251
" />
<path d="M105.9390 59.7251
L105.8786 59.9670
" />
<path d="M105.8786 59.9670
L105.8181 60.0880
" />
<path d="M105.8181 60.0880
L105.6971 60.2090
" />
<path d="M105.6971 60.2090
L105.5157 60.2694
" />
<path d="M105.5157 60.2694
L105.2133 60.2694
" />
</g></g>
<g style="fill:none; 
stroke:#840000; stroke-width:0.1524; stroke-opacity:1; 
stroke-linecap:round; stroke-linejoin:round;">
<text x="74.7712" y="89.6258"
textLength="4.0737" font-size="1.6933" lengthAdjust="spacingAndGlyphs"
text-anchor="end" opacity="0" stroke-opacity="0">GND</text>
<g class="stroked-text"><desc>GND</desc>
<path d="M71.7681 88.3608
L71.6471 88.3003
" />
<path d="M71.6471 88.3003
L71.4657 88.3003
" />
<path d="M71.4657 88.3003
L71.2843 88.3608
" />
<path d="M71.2843 88.3608
L71.1633 88.4818
" />
<path d="M71.1633 88.4818
L71.1028 88.6027
" />
<path d="M71.1028 88.6027
L71.0424 88.8446
" />
<path d="M71.0424 88.8446
L71.0424 89.0260
" />
<path d="M71.0424 89.0260
L71.1028 89.2679
" />
<path d="M71.1028 89.2679
L71.1633 89.3889
" />
<path d="M71.1633 89.3889
L71.2843 89.5099
" />
<path d="M71.2843 89.5099
L71.4657 89.5703
" />
<path d="M71.4657 89.5703
L71.5866 89.5703
" />
<path d="M71.5866 89.5703
L71.7681 89.5099
" />
<path d="M71.7681 89.5099
L71.8285 89.4494
" />
<path d="M71.8285 89.4494
L71.8285 89.0260
" />
<path d="M71.8285 89.0260
L71.5866 89.0260
" />
<path d="M72.3728 89.5703
L72.3728 88.3003
" />
<path d="M72.3728 88.3003
L73.0985 89.5703
" />
<path d="M73.0985 89.5703
L73.0985 88.3003
" />
<path d="M73.7033 89.5703
L73.7033 88.3003
" />
<path d="M73.7033 88.3003
L74.0057 88.3003
" />
<path d="M74.0057 88.3003
L74.1871 88.3608
" />
<path d="M74.1871 88.3608
L74.3081 88.4818
" />
<path d="M74.3081 88.4818
L74.3686 88.6027
" />
<path d="M74.3686 88.6027
L74.4290 88.8446
" />
<path d="M74.4290 88.8446
L74.4290 89.0260
" />
<path d="M74.4290 89.0260
L74.3686 89.2679
" />
<path d="M74.3686 89.2679
L74.3081 89.3889
" />
<path d="M74.3081 89.3889
L74.1871 89.5099
" />
<path d="M74.1871 89.5099
L74.0057 89.5703
" />
<path d="M74.0057 89.5703
L73.7033 89.5703
" />
</g><path style="fill:none; 
stroke:#840000; stroke-width:0.1524; stroke-opacity:1; 
stroke-linecap:round; stroke-linejoin:round;fill:none"
d="M 76.2000,88.9000
75.0887,87.6296
69.8841,87.6296
69.8841,88.9000
69.8841,90.1704
75.0887,90.1704
Z" /> 
</g>
<g style="fill:none; 
stroke:#840000; stroke-width:0.1524; stroke-opacity:1; 
stroke-linecap:round; stroke-linejoin:round;">
<text x="110.6488" y="47.7158"
textLength="6.6137" font-size="1.6933" lengthAdjust="spacingAndGlyphs"
text-anchor="start" opacity="0" stroke-opacity="0">PSON#</text>
<g class="stroked-text"><desc>PSON#</desc>
<path d="M111.0513 47.6603
L111.0513 46.3903
" />
<path d="M111.0513 46.3903
L111.5351 46.3903
" />
<path d="M111.5351 46.3903
L111.6561 46.4508
" />
<path d="M111.6561 46.4508
L111.7166 46.5113
" />
<path d="M111.7166 46.5113
L111.7770 46.6322
" />
<path d="M111.7770 46.6322
L111.7770 46.8137
" />
<path d="M111.7770 46.8137
L111.7166 46.9346
" />
<path d="M111.7166 46.9346
L111.6561 46.9951
" />
<path d="M111.6561 46.9951
L111.5351 47.0556
" />
<path d="M111.5351 47.0556
L111.0513 47.0556
" />
<path d="M112.2609 47.5999
L112.4423 47.6603
" />
<path d="M112.4423 47.6603
L112.7447 47.6603
" />
<path d="M112.7447 47.6603
L112.8656 47.5999
" />
<path d="M112.8656 47.5999
L112.9261 47.5394
" />
<path d="M112.9261 47.5394
L112.9866 47.4184
" />
<path d="M112.9866 47.4184
L112.9866 47.2975
" />
<path d="M112.9866 47.2975
L112.9261 47.1765
" />
<path d="M112.9261 47.1765
L112.8656 47.1160
" />
<path d="M112.8656 47.1160
L112.7447 47.0556
" />
<path d="M112.7447 47.0556
L112.5028 46.9951
" />
<path d="M112.5028 46.9951
L112.3818 46.9346
" />
<path d="M112.3818 46.9346
L112.3213 46.8741
" />
<path d="M112.3213 46.8741
L112.2609 46.7532
" />
<path d="M112.2609 46.7532
L112.2609 46.6322
" />
<path d="M112.2609 46.6322
L112.3213 46.5113
" />
<path d="M112.3213 46.5113
L112.3818 46.4508
" />
<path d="M112.3818 46.4508
L112.5028 46.3903
" />
<path d="M112.5028 46.3903
L112.8051 46.3903
" />
<path d="M112.8051 46.3903
L112.9866 46.4508
" />
<path d="M113.7727 46.3903
L114.0146 46.3903
" />
<path d="M114.0146 46.3903
L114.1356 46.4508
" />
<path d="M114.1356 46.4508
L114.2565 46.5718
" />
<path d="M114.2565 46.5718
L114.3170 46.8137
" />
<path d="M114.3170 46.8137
L114.3170 47.2370
" />
<path d="M114.3170 47.2370
L114.2565 47.4789
" />
<path d="M114.2565 47.4789
L114.1356 47.5999
" />
<path d="M114.1356 47.5999
L114.0146 47.6603
" />
<path d="M114.0146 47.6603
L113.7727 47.6603
" />
<path d="M113.7727 47.6603
L113.6518 47.5999
" />
<path d="M113.6518 47.5999
L113.5308 47.4789
" />
<path d="M113.5308 47.4789
L113.4704 47.2370
" />
<path d="M113.4704 47.2370
L113.4704 46.8137
" />
<path d="M113.4704 46.8137
L113.5308 46.5718
" />
<path d="M113.5308 46.5718
L113.6518 46.4508
" />
<path d="M113.6518 46.4508
L113.7727 46.3903
" />
<path d="M114.8613 47.6603
L114.8613 46.3903
" />
<path d="M114.8613 46.3903
L115.5870 47.6603
" />
<path d="M115.5870 47.6603
L115.5870 46.3903
" />
<path d="M116.1314 46.8137
L117.0385 46.8137
" />
<path d="M116.4942 46.2694
L116.1314 47.9022
" />
<path d="M116.9175 47.3579
L116.0104 47.3579
" />
<path d="M116.5547 47.9022
L116.9175 46.2694
" />
</g><path style="fill:none; 
stroke:#840000; stroke-width:0.1524; stroke-opacity:1; 
stroke-linecap:round; stroke-linejoin:round;fill:none"
d="M 109.2200,46.9900
110.3313,48.2604
118.0759,48.2604
118.0759,46.9900
118.0759,45.7196
110.3313,45.7196
Z" /> 
</g>
<g style="fill:none; 
stroke:#840000; stroke-width:0.1524; stroke-opacity:1; 
stroke-linecap:round; stroke-linejoin:round;">
<text x="74.7712" y="76.9258"
textLength="3.7108" font-size="1.6933" lengthAdjust="spacingAndGlyphs"
text-anchor="end" opacity="0" stroke-opacity="0">12V</text>
<g class="stroked-text"><desc>12V</desc>
<path d="M72.1310 76.8703
L71.4053 76.8703
" />
<path d="M71.7681 76.8703
L71.7681 75.6003
" />
<path d="M71.7681 75.6003
L71.6472 75.7818
" />
<path d="M71.6472 75.7818
L71.5262 75.9027
" />
<path d="M71.5262 75.9027
L71.4053 75.9632
" />
<path d="M72.6148 75.7213
L72.6752 75.6608
" />
<path d="M72.6752 75.6608
L72.7962 75.6003
" />
<path d="M72.7962 75.6003
L73.0986 75.6003
" />
<path d="M73.0986 75.6003
L73.2195 75.6608
" />
<path d="M73.2195 75.6608
L73.2800 75.7213
" />
<path d="M73.2800 75.7213
L73.3405 75.8422
" />
<path d="M73.3405 75.8422
L73.3405 75.9632
" />
<path d="M73.3405 75.9632
L73.2800 76.1446
" />
<path d="M73.2800 76.1446
L72.5543 76.8703
" />
<path d="M72.5543 76.8703
L73.3405 76.8703
" />
<path d="M73.7033 75.6003
L74.1266 76.8703
" />
<path d="M74.1266 76.8703
L74.5500 75.6003
" />
</g><path style="fill:none; 
stroke:#840000; stroke-width:0.1524; stroke-opacity:1; 
stroke-linecap:round; stroke-linejoin:round;fill:none"
d="M 76.2000,76.2000
75.0887,74.9296
70.2470,74.9296
70.2470,76.2000
70.2470,77.4704
75.0887,77.4704
Z" /> 
</g>
<g style="fill:none; 
stroke:#840000; stroke-width:0.1524; stroke-opacity:1; 
stroke-linecap:round; stroke-linejoin:round;">
<text x="74.7712" y="65.4958"
textLength="6.1903" font-size="1.6933" lengthAdjust="spacingAndGlyphs"
text-anchor="end" opacity="0" stroke-opacity="0">12VSB</text>
<g class="stroked-text"><desc>12VSB</desc>
<path d="M69.6515 65.4403
L68.9258 65.4403
" />
<path d="M69.2886 65.4403
L69.2886 64.1703
" />
<path d="M69.2886 64.1703
L69.1677 64.3518
" />
<path d="M69.1677 64.3518
L69.0467 64.4727
" />
<path d="M69.0467 64.4727
L68.9258 64.5332
" />
<path d="M70.1353 64.2913
L70.1957 64.2308
" />
<path d="M70.1957 64.2308
L70.3167 64.1703
" />
<path d="M70.3167 64.1703
L70.6191 64.1703
" />
<path d="M70.6191 64.1703
L70.7400 64.2308
" />
<path d="M70.7400 64.2308
L70.8005 64.2913
" />
<path d="M70.8005 64.2913
L70.8610 64.4122
" />
<path d="M70.8610 64.4122
L70.8610 64.5332
" />
<path d="M70.8610 64.5332
L70.8005 64.7146
" />
<path d="M70.8005 64.7146
L70.0748 65.4403
" />
<path d="M70.0748 65.4403
L70.8610 65.4403
" />
<path d="M71.2238 64.1703
L71.6471 65.4403
" />
<path d="M71.6471 65.4403
L72.0705 64.1703
" />
<path d="M72.4334 65.3799
L72.6148 65.4403
" />
<path d="M72.6148 65.4403
L72.9172 65.4403
" />
<path d="M72.9172 65.4403
L73.0381 65.3799
" />
<path d="M73.0381 65.3799
L73.0986 65.3194
" />
<path d="M73.0986 65.3194
L73.1591 65.1984
" />
<path d="M73.1591 65.1984
L73.1591 65.0775
" />
<path d="M73.1591 65.0775
L73.0986 64.9565
" />
<path d="M73.0986 64.9565
L73.0381 64.8960
" />
<path d="M73.0381 64.8960
L72.9172 64.8356
" />
<path d="M72.9172 64.8356
L72.6753 64.7751
" />
<path d="M72.6753 64.7751
L72.5543 64.7146
" />
<path d="M72.5543 64.7146
L72.4938 64.6541
" />
<path d="M72.4938 64.6541
L72.4334 64.5332
" />
<path d="M72.4334 64.5332
L72.4334 64.4122
" />
<path d="M72.4334 64.4122
L72.4938 64.2913
" />
<path d="M72.4938 64.2913
L72.5543 64.2308
" />
<path d="M72.5543 64.2308
L72.6753 64.1703
" />
<path d="M72.6753 64.1703
L72.9776 64.1703
" />
<path d="M72.9776 64.1703
L73.1591 64.2308
" />
<path d="M74.1267 64.7751
L74.3081 64.8356
" />
<path d="M74.3081 64.8356
L74.3686 64.8960
" />
<path d="M74.3686 64.8960
L74.4290 65.0170
" />
<path d="M74.4290 65.0170
L74.4290 65.1984
" />
<path d="M74.4290 65.1984
L74.3686 65.3194
" />
<path d="M74.3686 65.3194
L74.3081 65.3799
" />
<path d="M74.3081 65.3799
L74.1871 65.4403
" />
<path d="M74.1871 65.4403
L73.7033 65.4403
" />
<path d="M73.7033 65.4403
L73.7033 64.1703
" />
<path d="M73.7033 64.1703
L74.1267 64.1703
" />
<path d="M74.1267 64.1703
L74.2476 64.2308
" />
<path d="M74.2476 64.2308
L74.3081 64.2913
" />
<path d="M74.3081 64.2913
L74.3686 64.4122
" />
<path d="M74.3686 64.4122
L74.3686 64.5332
" />
<path d="M74.3686 64.5332
L74.3081 64.6541
" />
<path d="M74.3081 64.6541
L74.2476 64.7146
" />
<path d="M74.2476 64.7146
L74.1267 64.7751
" />
<path d="M74.1267 64.7751
L73.7033 64.7751
" />
</g><path style="fill:none; 
stroke:#840000; stroke-width:0.1524; stroke-opacity:1; 
stroke-linecap:round; stroke-linejoin:round;fill:none"
d="M 76.2000,64.7700
75.0887,63.4996
67.7675,63.4996
67.7675,64.7700
67.7675,66.0404
75.0887,66.0404
Z" /> 
</g>
<g style="fill:none; 
stroke:#009600; stroke-width:0.1524; stroke-opacity:1; 
stroke-linecap:round; stroke-linejoin:round;">
<path d="M107.9500 64.7700
L106.6800 64.7700
" />
<path d="M107.9500 88.9000
L107.9500 91.4400
" />
<path d="M86.3600 88.9000
L107.9500 88.9000
" />
<path d="M80.0100 64.7700
L87.6300 64.7700
" />
<path d="M82.5500 49.5300
L80.0100 49.5300
" />
<path d="M80.0100 49.5300
L80.0100 64.7700
" />
<path d="M90.1700 49.5300
L93.9800 49.5300
" />
<path d="M76.2000 64.7700
L80.0100 64.7700
" />
<path d="M76.2000 88.9000
L86.3600 88.9000
" />
<path d="M95.2500 64.7700
L99.0600 64.7700
" />
<path d="M104.1400 46.9900
L109.2200 46.9900
" />
<path d="M86.3600 76.2000
L92.7100 76.2000
" />
<path d="M107.9500 88.9000
L107.9500 64.7700
" />
<path d="M76.2000 76.2000
L86.3600 76.2000
" />
<path d="M86.3600 88.9000
L86.3600 87.6300
" />
<path d="M86.3600 76.2000
L86.3600 77.4700
" />
</g>
<g style="fill:none; 
stroke:#0000C2; stroke-width:0.1524; stroke-opacity:1; 
stroke-linecap:round; stroke-linejoin:round;">
<text x="122.4280" y="74.7944"
textLength="21.4302" font-size="1.6933" lengthAdjust="spacingAndGlyphs"
text-anchor="middle" opacity="0" stroke-opacity="0">+12V and GND wired </text>
<g class="stroked-text"><desc>+12V and GND wired </desc>
<path d="M112.1168 74.2551
L113.0845 74.2551
" />
<path d="M112.6006 74.7389
L112.6006 73.7713
" />
<path d="M114.3545 74.7389
L113.6288 74.7389
" />
<path d="M113.9916 74.7389
L113.9916 73.4689
" />
<path d="M113.9916 73.4689
L113.8707 73.6504
" />
<path d="M113.8707 73.6504
L113.7497 73.7713
" />
<path d="M113.7497 73.7713
L113.6288 73.8318
" />
<path d="M114.8383 73.5899
L114.8987 73.5294
" />
<path d="M114.8987 73.5294
L115.0197 73.4689
" />
<path d="M115.0197 73.4689
L115.3221 73.4689
" />
<path d="M115.3221 73.4689
L115.4430 73.5294
" />
<path d="M115.4430 73.5294
L115.5035 73.5899
" />
<path d="M115.5035 73.5899
L115.5640 73.7108
" />
<path d="M115.5640 73.7108
L115.5640 73.8318
" />
<path d="M115.5640 73.8318
L115.5035 74.0132
" />
<path d="M115.5035 74.0132
L114.7778 74.7389
" />
<path d="M114.7778 74.7389
L115.5640 74.7389
" />
<path d="M115.9268 73.4689
L116.3501 74.7389
" />
<path d="M116.3501 74.7389
L116.7735 73.4689
" />
<path d="M118.7087 74.7389
L118.7087 74.0737
" />
<path d="M118.7087 74.0737
L118.6482 73.9527
" />
<path d="M118.6482 73.9527
L118.5273 73.8923
" />
<path d="M118.5273 73.8923
L118.2854 73.8923
" />
<path d="M118.2854 73.8923
L118.1644 73.9527
" />
<path d="M118.7087 74.6785
L118.5878 74.7389
" />
<path d="M118.5878 74.7389
L118.2854 74.7389
" />
<path d="M118.2854 74.7389
L118.1644 74.6785
" />
<path d="M118.1644 74.6785
L118.1040 74.5575
" />
<path d="M118.1040 74.5575
L118.1040 74.4365
" />
<path d="M118.1040 74.4365
L118.1644 74.3156
" />
<path d="M118.1644 74.3156
L118.2854 74.2551
" />
<path d="M118.2854 74.2551
L118.5878 74.2551
" />
<path d="M118.5878 74.2551
L118.7087 74.1946
" />
<path d="M119.3134 73.8923
L119.3134 74.7389
" />
<path d="M119.3134 74.0132
L119.3739 73.9527
" />
<path d="M119.3739 73.9527
L119.4949 73.8923
" />
<path d="M119.4949 73.8923
L119.6763 73.8923
" />
<path d="M119.6763 73.8923
L119.7972 73.9527
" />
<path d="M119.7972 73.9527
L119.8577 74.0737
" />
<path d="M119.8577 74.0737
L119.8577 74.7389
" />
<path d="M121.0067 74.7389
L121.0067 73.4689
" />
<path d="M121.0067 74.6785
L120.8858 74.7389
" />
<path d="M120.8858 74.7389
L120.6439 74.7389
" />
<path d="M120.6439 74.7389
L120.5229 74.6785
" />
<path d="M120.5229 74.6785
L120.4624 74.6180
" />
<path d="M120.4624 74.6180
L120.4020 74.4970
" />
<path d="M120.4020 74.4970
L120.4020 74.1342
" />
<path d="M120.4020 74.1342
L120.4624 74.0132
" />
<path d="M120.4624 74.0132
L120.5229 73.9527
" />
<path d="M120.5229 73.9527
L120.6439 73.8923
" />
<path d="M120.6439 73.8923
L120.8858 73.8923
" />
<path d="M120.8858 73.8923
L121.0067 73.9527
" />
<path d="M123.2443 73.5294
L123.1233 73.4689
" />
<path d="M123.1233 73.4689
L122.9419 73.4689
" />
<path d="M122.9419 73.4689
L122.7605 73.5294
" />
<path d="M122.7605 73.5294
L122.6395 73.6504
" />
<path d="M122.6395 73.6504
L122.5790 73.7713
" />
<path d="M122.5790 73.7713
L122.5186 74.0132
" />
<path d="M122.5186 74.0132
L122.5186 74.1946
" />
<path d="M122.5186 74.1946
L122.5790 74.4365
" />
<path d="M122.5790 74.4365
L122.6395 74.5575
" />
<path d="M122.6395 74.5575
L122.7605 74.6785
" />
<path d="M122.7605 74.6785
L122.9419 74.7389
" />
<path d="M122.9419 74.7389
L123.0628 74.7389
" />
<path d="M123.0628 74.7389
L123.2443 74.6785
" />
<path d="M123.2443 74.6785
L123.3047 74.6180
" />
<path d="M123.3047 74.6180
L123.3047 74.1946
" />
<path d="M123.3047 74.1946
L123.0628 74.1946
" />
<path d="M123.8490 74.7389
L123.8490 73.4689
" />
<path d="M123.8490 73.4689
L124.5747 74.7389
" />
<path d="M124.5747 74.7389
L124.5747 73.4689
" />
<path d="M125.1795 74.7389
L125.1795 73.4689
" />
<path d="M125.1795 73.4689
L125.4819 73.4689
" />
<path d="M125.4819 73.4689
L125.6633 73.5294
" />
<path d="M125.6633 73.5294
L125.7843 73.6504
" />
<path d="M125.7843 73.6504
L125.8448 73.7713
" />
<path d="M125.8448 73.7713
L125.9052 74.0132
" />
<path d="M125.9052 74.0132
L125.9052 74.1946
" />
<path d="M125.9052 74.1946
L125.8448 74.4365
" />
<path d="M125.8448 74.4365
L125.7843 74.5575
" />
<path d="M125.7843 74.5575
L125.6633 74.6785
" />
<path d="M125.6633 74.6785
L125.4819 74.7389
" />
<path d="M125.4819 74.7389
L125.1795 74.7389
" />
<path d="M127.2962 73.8923
L127.5381 74.7389
" />
<path d="M127.5381 74.7389
L127.7800 74.1342
" />
<path d="M127.7800 74.1342
L128.0219 74.7389
" />
<path d="M128.0219 74.7389
L128.2638 73.8923
" />
<path d="M128.7476 74.7389
L128.7476 73.8923
" />
<path d="M128.7476 73.4689
L128.6872 73.5294
" />
<path d="M128.6872 73.5294
L128.7476 73.5899
" />
<path d="M128.7476 73.5899
L128.8081 73.5294
" />
<path d="M128.8081 73.5294
L128.7476 73.4689
" />
<path d="M128.7476 73.4689
L128.7476 73.5899
" />
<path d="M129.3524 74.7389
L129.3524 73.8923
" />
<path d="M129.3524 74.1342
L129.4129 74.0132
" />
<path d="M129.4129 74.0132
L129.4734 73.9527
" />
<path d="M129.4734 73.9527
L129.5943 73.8923
" />
<path d="M129.5943 73.8923
L129.7153 73.8923
" />
<path d="M130.6224 74.6785
L130.5015 74.7389
" />
<path d="M130.5015 74.7389
L130.2596 74.7389
" />
<path d="M130.2596 74.7389
L130.1386 74.6785
" />
<path d="M130.1386 74.6785
L130.0782 74.5575
" />
<path d="M130.0782 74.5575
L130.0782 74.0737
" />
<path d="M130.0782 74.0737
L130.1386 73.9527
" />
<path d="M130.1386 73.9527
L130.2596 73.8923
" />
<path d="M130.2596 73.8923
L130.5015 73.8923
" />
<path d="M130.5015 73.8923
L130.6224 73.9527
" />
<path d="M130.6224 73.9527
L130.6829 74.0737
" />
<path d="M130.6829 74.0737
L130.6829 74.1946
" />
<path d="M130.6829 74.1946
L130.0782 74.3156
" />
<path d="M131.7715 74.7389
L131.7715 73.4689
" />
<path d="M131.7715 74.6785
L131.6506 74.7389
" />
<path d="M131.6506 74.7389
L131.4087 74.7389
" />
<path d="M131.4087 74.7389
L131.2877 74.6785
" />
<path d="M131.2877 74.6785
L131.2272 74.6180
" />
<path d="M131.2272 74.6180
L131.1668 74.4970
" />
<path d="M131.1668 74.4970
L131.1668 74.1342
" />
<path d="M131.1668 74.1342
L131.2272 74.0132
" />
<path d="M131.2272 74.0132
L131.2877 73.9527
" />
<path d="M131.2877 73.9527
L131.4087 73.8923
" />
<path d="M131.4087 73.8923
L131.6506 73.8923
" />
<path d="M131.6506 73.8923
L131.7715 73.9527
" />
</g><text x="122.4280" y="76.8390"
textLength="17.0153" font-size="1.6933" lengthAdjust="spacingAndGlyphs"
text-anchor="middle" opacity="0" stroke-opacity="0">to power outlets </text>
<g class="stroked-text"><desc>to power outlets </desc>
<path d="M114.1429 75.9369
L114.6267 75.9369
" />
<path d="M114.3243 75.5135
L114.3243 76.6021
" />
<path d="M114.3243 76.6021
L114.3848 76.7231
" />
<path d="M114.3848 76.7231
L114.5058 76.7835
" />
<path d="M114.5058 76.7835
L114.6267 76.7835
" />
<path d="M115.2315 76.7835
L115.1105 76.7231
" />
<path d="M115.1105 76.7231
L115.0500 76.6626
" />
<path d="M115.0500 76.6626
L114.9896 76.5416
" />
<path d="M114.9896 76.5416
L114.9896 76.1788
" />
<path d="M114.9896 76.1788
L115.0500 76.0578
" />
<path d="M115.0500 76.0578
L115.1105 75.9973
" />
<path d="M115.1105 75.9973
L115.2315 75.9369
" />
<path d="M115.2315 75.9369
L115.4129 75.9369
" />
<path d="M115.4129 75.9369
L115.5338 75.9973
" />
<path d="M115.5338 75.9973
L115.5943 76.0578
" />
<path d="M115.5943 76.0578
L115.6548 76.1788
" />
<path d="M115.6548 76.1788
L115.6548 76.5416
" />
<path d="M115.6548 76.5416
L115.5943 76.6626
" />
<path d="M115.5943 76.6626
L115.5338 76.7231
" />
<path d="M115.5338 76.7231
L115.4129 76.7835
" />
<path d="M115.4129 76.7835
L115.2315 76.7835
" />
<path d="M117.1666 75.9369
L117.1666 77.2069
" />
<path d="M117.1666 75.9973
L117.2876 75.9369
" />
<path d="M117.2876 75.9369
L117.5295 75.9369
" />
<path d="M117.5295 75.9369
L117.6504 75.9973
" />
<path d="M117.6504 75.9973
L117.7109 76.0578
" />
<path d="M117.7109 76.0578
L117.7714 76.1788
" />
<path d="M117.7714 76.1788
L117.7714 76.5416
" />
<path d="M117.7714 76.5416
L117.7109 76.6626
" />
<path d="M117.7109 76.6626
L117.6504 76.7231
" />
<path d="M117.6504 76.7231
L117.5295 76.7835
" />
<path d="M117.5295 76.7835
L117.2876 76.7835
" />
<path d="M117.2876 76.7835
L117.1666 76.7231
" />
<path d="M118.4971 76.7835
L118.3761 76.7231
" />
<path d="M118.3761 76.7231
L118.3156 76.6626
" />
<path d="M118.3156 76.6626
L118.2552 76.5416
" />
<path d="M118.2552 76.5416
L118.2552 76.1788
" />
<path d="M118.2552 76.1788
L118.3156 76.0578
" />
<path d="M118.3156 76.0578
L118.3761 75.9973
" />
<path d="M118.3761 75.9973
L118.4971 75.9369
" />
<path d="M118.4971 75.9369
L118.6785 75.9369
" />
<path d="M118.6785 75.9369
L118.7994 75.9973
" />
<path d="M118.7994 75.9973
L118.8599 76.0578
" />
<path d="M118.8599 76.0578
L118.9204 76.1788
" />
<path d="M118.9204 76.1788
L118.9204 76.5416
" />
<path d="M118.9204 76.5416
L118.8599 76.6626
" />
<path d="M118.8599 76.6626
L118.7994 76.7231
" />
<path d="M118.7994 76.7231
L118.6785 76.7835
" />
<path d="M118.6785 76.7835
L118.4971 76.7835
" />
<path d="M119.3437 75.9369
L119.5856 76.7835
" />
<path d="M119.5856 76.7835
L119.8275 76.1788
" />
<path d="M119.8275 76.1788
L120.0694 76.7835
" />
<path d="M120.0694 76.7835
L120.3113 75.9369
" />
<path d="M121.2789 76.7231
L121.1580 76.7835
" />
<path d="M121.1580 76.7835
L120.9161 76.7835
" />
<path d="M120.9161 76.7835
L120.7951 76.7231
" />
<path d="M120.7951 76.7231
L120.7347 76.6021
" />
<path d="M120.7347 76.6021
L120.7347 76.1183
" />
<path d="M120.7347 76.1183
L120.7951 75.9973
" />
<path d="M120.7951 75.9973
L120.9161 75.9369
" />
<path d="M120.9161 75.9369
L121.1580 75.9369
" />
<path d="M121.1580 75.9369
L121.2789 75.9973
" />
<path d="M121.2789 75.9973
L121.3394 76.1183
" />
<path d="M121.3394 76.1183
L121.3394 76.2392
" />
<path d="M121.3394 76.2392
L120.7347 76.3602
" />
<path d="M121.8837 76.7835
L121.8837 75.9369
" />
<path d="M121.8837 76.1788
L121.9442 76.0578
" />
<path d="M121.9442 76.0578
L122.0047 75.9973
" />
<path d="M122.0047 75.9973
L122.1256 75.9369
" />
<path d="M122.1256 75.9369
L122.2466 75.9369
" />
<path d="M123.8190 76.7835
L123.6980 76.7231
" />
<path d="M123.6980 76.7231
L123.6375 76.6626
" />
<path d="M123.6375 76.6626
L123.5771 76.5416
" />
<path d="M123.5771 76.5416
L123.5771 76.1788
" />
<path d="M123.5771 76.1788
L123.6375 76.0578
" />
<path d="M123.6375 76.0578
L123.6980 75.9973
" />
<path d="M123.6980 75.9973
L123.8190 75.9369
" />
<path d="M123.8190 75.9369
L124.0004 75.9369
" />
<path d="M124.0004 75.9369
L124.1213 75.9973
" />
<path d="M124.1213 75.9973
L124.1818 76.0578
" />
<path d="M124.1818 76.0578
L124.2423 76.1788
" />
<path d="M124.2423 76.1788
L124.2423 76.5416
" />
<path d="M124.2423 76.5416
L124.1818 76.6626
" />
<path d="M124.1818 76.6626
L124.1213 76.7231
" />
<path d="M124.1213 76.7231
L124.0004 76.7835
" />
<path d="M124.0004 76.7835
L123.8190 76.7835
" />
<path d="M125.3308 75.9369
L125.3308 76.7835
" />
<path d="M124.7865 75.9369
L124.7865 76.6021
" />
<path d="M124.7865 76.6021
L124.8470 76.7231
" />
<path d="M124.8470 76.7231
L124.9680 76.7835
" />
<path d="M124.9680 76.7835
L125.1494 76.7835
" />
<path d="M125.1494 76.7835
L125.2703 76.7231
" />
<path d="M125.2703 76.7231
L125.3308 76.6626
" />
<path d="M125.7541 75.9369
L126.2379 75.9369
" />
<path d="M125.9355 75.5135
L125.9355 76.6021
" />
<path d="M125.9355 76.6021
L125.9960 76.7231
" />
<path d="M125.9960 76.7231
L126.1170 76.7835
" />
<path d="M126.1170 76.7835
L126.2379 76.7835
" />
<path d="M126.8427 76.7835
L126.7217 76.7231
" />
<path d="M126.7217 76.7231
L126.6612 76.6021
" />
<path d="M126.6612 76.6021
L126.6612 75.5135
" />
<path d="M127.8102 76.7231
L127.6893 76.7835
" />
<path d="M127.6893 76.7835
L127.4474 76.7835
" />
<path d="M127.4474 76.7835
L127.3264 76.7231
" />
<path d="M127.3264 76.7231
L127.2660 76.6021
" />
<path d="M127.2660 76.6021
L127.2660 76.1183
" />
<path d="M127.2660 76.1183
L127.3264 75.9973
" />
<path d="M127.3264 75.9973
L127.4474 75.9369
" />
<path d="M127.4474 75.9369
L127.6893 75.9369
" />
<path d="M127.6893 75.9369
L127.8102 75.9973
" />
<path d="M127.8102 75.9973
L127.8707 76.1183
" />
<path d="M127.8707 76.1183
L127.8707 76.2392
" />
<path d="M127.8707 76.2392
L127.2660 76.3602
" />
<path d="M128.2336 75.9369
L128.7174 75.9369
" />
<path d="M128.4150 75.5135
L128.4150 76.6021
" />
<path d="M128.4150 76.6021
L128.4755 76.7231
" />
<path d="M128.4755 76.7231
L128.5965 76.7835
" />
<path d="M128.5965 76.7835
L128.7174 76.7835
" />
<path d="M129.0803 76.7231
L129.2012 76.7835
" />
<path d="M129.2012 76.7835
L129.4431 76.7835
" />
<path d="M129.4431 76.7835
L129.5641 76.7231
" />
<path d="M129.5641 76.7231
L129.6245 76.6021
" />
<path d="M129.6245 76.6021
L129.6245 76.5416
" />
<path d="M129.6245 76.5416
L129.5641 76.4207
" />
<path d="M129.5641 76.4207
L129.4431 76.3602
" />
<path d="M129.4431 76.3602
L129.2617 76.3602
" />
<path d="M129.2617 76.3602
L129.1407 76.2997
" />
<path d="M129.1407 76.2997
L129.0803 76.1788
" />
<path d="M129.0803 76.1788
L129.0803 76.1183
" />
<path d="M129.0803 76.1183
L129.1407 75.9973
" />
<path d="M129.1407 75.9973
L129.2617 75.9369
" />
<path d="M129.2617 75.9369
L129.4431 75.9369
" />
<path d="M129.4431 75.9369
L129.5641 75.9973
" />
</g><text x="122.4280" y="78.8836"
textLength="19.5555" font-size="1.6933" lengthAdjust="spacingAndGlyphs"
text-anchor="middle" opacity="0" stroke-opacity="0">(XT60, barrel jacks)</text>
<g class="stroked-text"><desc>(XT60, barrel jacks)</desc>
<path d="M113.4171 79.3119
L113.3566 79.2515
" />
<path d="M113.3566 79.2515
L113.2357 79.0700
" />
<path d="M113.2357 79.0700
L113.1752 78.9491
" />
<path d="M113.1752 78.9491
L113.1147 78.7677
" />
<path d="M113.1147 78.7677
L113.0542 78.4653
" />
<path d="M113.0542 78.4653
L113.0542 78.2234
" />
<path d="M113.0542 78.2234
L113.1147 77.9210
" />
<path d="M113.1147 77.9210
L113.1752 77.7396
" />
<path d="M113.1752 77.7396
L113.2357 77.6186
" />
<path d="M113.2357 77.6186
L113.3566 77.4372
" />
<path d="M113.3566 77.4372
L113.4171 77.3767
" />
<path d="M113.7800 77.5581
L114.6266 78.8281
" />
<path d="M114.6266 77.5581
L113.7800 78.8281
" />
<path d="M114.9290 77.5581
L115.6547 77.5581
" />
<path d="M115.2919 78.8281
L115.2919 77.5581
" />
<path d="M116.6223 77.5581
L116.3804 77.5581
" />
<path d="M116.3804 77.5581
L116.2595 77.6186
" />
<path d="M116.2595 77.6186
L116.1990 77.6791
" />
<path d="M116.1990 77.6791
L116.0780 77.8605
" />
<path d="M116.0780 77.8605
L116.0176 78.1024
" />
<path d="M116.0176 78.1024
L116.0176 78.5862
" />
<path d="M116.0176 78.5862
L116.0780 78.7072
" />
<path d="M116.0780 78.7072
L116.1385 78.7677
" />
<path d="M116.1385 78.7677
L116.2595 78.8281
" />
<path d="M116.2595 78.8281
L116.5014 78.8281
" />
<path d="M116.5014 78.8281
L116.6223 78.7677
" />
<path d="M116.6223 78.7677
L116.6828 78.7072
" />
<path d="M116.6828 78.7072
L116.7433 78.5862
" />
<path d="M116.7433 78.5862
L116.7433 78.2838
" />
<path d="M116.7433 78.2838
L116.6828 78.1629
" />
<path d="M116.6828 78.1629
L116.6223 78.1024
" />
<path d="M116.6223 78.1024
L116.5014 78.0419
" />
<path d="M116.5014 78.0419
L116.2595 78.0419
" />
<path d="M116.2595 78.0419
L116.1385 78.1024
" />
<path d="M116.1385 78.1024
L116.0780 78.1629
" />
<path d="M116.0780 78.1629
L116.0176 78.2838
" />
<path d="M117.5294 77.5581
L117.6504 77.5581
" />
<path d="M117.6504 77.5581
L117.7713 77.6186
" />
<path d="M117.7713 77.6186
L117.8318 77.6791
" />
<path d="M117.8318 77.6791
L117.8923 77.8000
" />
<path d="M117.8923 77.8000
L117.9528 78.0419
" />
<path d="M117.9528 78.0419
L117.9528 78.3443
" />
<path d="M117.9528 78.3443
L117.8923 78.5862
" />
<path d="M117.8923 78.5862
L117.8318 78.7072
" />
<path d="M117.8318 78.7072
L117.7713 78.7677
" />
<path d="M117.7713 78.7677
L117.6504 78.8281
" />
<path d="M117.6504 78.8281
L117.5294 78.8281
" />
<path d="M117.5294 78.8281
L117.4085 78.7677
" />
<path d="M117.4085 78.7677
L117.3480 78.7072
" />
<path d="M117.3480 78.7072
L117.2875 78.5862
" />
<path d="M117.2875 78.5862
L117.2271 78.3443
" />
<path d="M117.2271 78.3443
L117.2271 78.0419
" />
<path d="M117.2271 78.0419
L117.2875 77.8000
" />
<path d="M117.2875 77.8000
L117.3480 77.6791
" />
<path d="M117.3480 77.6791
L117.4085 77.6186
" />
<path d="M117.4085 77.6186
L117.5294 77.5581
" />
<path d="M118.5575 78.7677
L118.5575 78.8281
" />
<path d="M118.5575 78.8281
L118.4970 78.9491
" />
<path d="M118.4970 78.9491
L118.4366 79.0096
" />
<path d="M120.0694 78.8281
L120.0694 77.5581
" />
<path d="M120.0694 78.0419
L120.1904 77.9815
" />
<path d="M120.1904 77.9815
L120.4323 77.9815
" />
<path d="M120.4323 77.9815
L120.5532 78.0419
" />
<path d="M120.5532 78.0419
L120.6137 78.1024
" />
<path d="M120.6137 78.1024
L120.6742 78.2234
" />
<path d="M120.6742 78.2234
L120.6742 78.5862
" />
<path d="M120.6742 78.5862
L120.6137 78.7072
" />
<path d="M120.6137 78.7072
L120.5532 78.7677
" />
<path d="M120.5532 78.7677
L120.4323 78.8281
" />
<path d="M120.4323 78.8281
L120.1904 78.8281
" />
<path d="M120.1904 78.8281
L120.0694 78.7677
" />
<path d="M121.7627 78.8281
L121.7627 78.1629
" />
<path d="M121.7627 78.1629
L121.7022 78.0419
" />
<path d="M121.7022 78.0419
L121.5813 77.9815
" />
<path d="M121.5813 77.9815
L121.3394 77.9815
" />
<path d="M121.3394 77.9815
L121.2184 78.0419
" />
<path d="M121.7627 78.7677
L121.6418 78.8281
" />
<path d="M121.6418 78.8281
L121.3394 78.8281
" />
<path d="M121.3394 78.8281
L121.2184 78.7677
" />
<path d="M121.2184 78.7677
L121.1580 78.6467
" />
<path d="M121.1580 78.6467
L121.1580 78.5257
" />
<path d="M121.1580 78.5257
L121.2184 78.4048
" />
<path d="M121.2184 78.4048
L121.3394 78.3443
" />
<path d="M121.3394 78.3443
L121.6418 78.3443
" />
<path d="M121.6418 78.3443
L121.7627 78.2838
" />
<path d="M122.3674 78.8281
L122.3674 77.9815
" />
<path d="M122.3674 78.2234
L122.4279 78.1024
" />
<path d="M122.4279 78.1024
L122.4884 78.0419
" />
<path d="M122.4884 78.0419
L122.6093 77.9815
" />
<path d="M122.6093 77.9815
L122.7303 77.9815
" />
<path d="M123.1536 78.8281
L123.1536 77.9815
" />
<path d="M123.1536 78.2234
L123.2141 78.1024
" />
<path d="M123.2141 78.1024
L123.2746 78.0419
" />
<path d="M123.2746 78.0419
L123.3955 77.9815
" />
<path d="M123.3955 77.9815
L123.5165 77.9815
" />
<path d="M124.4236 78.7677
L124.3027 78.8281
" />
<path d="M124.3027 78.8281
L124.0608 78.8281
" />
<path d="M124.0608 78.8281
L123.9398 78.7677
" />
<path d="M123.9398 78.7677
L123.8794 78.6467
" />
<path d="M123.8794 78.6467
L123.8794 78.1629
" />
<path d="M123.8794 78.1629
L123.9398 78.0419
" />
<path d="M123.9398 78.0419
L124.0608 77.9815
" />
<path d="M124.0608 77.9815
L124.3027 77.9815
" />
<path d="M124.3027 77.9815
L124.4236 78.0419
" />
<path d="M124.4236 78.0419
L124.4841 78.1629
" />
<path d="M124.4841 78.1629
L124.4841 78.2838
" />
<path d="M124.4841 78.2838
L123.8794 78.4048
" />
<path d="M125.2099 78.8281
L125.0889 78.7677
" />
<path d="M125.0889 78.7677
L125.0284 78.6467
" />
<path d="M125.0284 78.6467
L125.0284 77.5581
" />
<path d="M126.6612 77.9815
L126.6612 79.0700
" />
<path d="M126.6612 79.0700
L126.6008 79.1910
" />
<path d="M126.6008 79.1910
L126.4798 79.2515
" />
<path d="M126.4798 79.2515
L126.4193 79.2515
" />
<path d="M126.6612 77.5581
L126.6008 77.6186
" />
<path d="M126.6008 77.6186
L126.6612 77.6791
" />
<path d="M126.6612 77.6791
L126.7217 77.6186
" />
<path d="M126.7217 77.6186
L126.6612 77.5581
" />
<path d="M126.6612 77.5581
L126.6612 77.6791
" />
<path d="M127.8103 78.8281
L127.8103 78.1629
" />
<path d="M127.8103 78.1629
L127.7498 78.0419
" />
<path d="M127.7498 78.0419
L127.6289 77.9815
" />
<path d="M127.6289 77.9815
L127.3870 77.9815
" />
<path d="M127.3870 77.9815
L127.2660 78.0419
" />
<path d="M127.8103 78.7677
L127.6894 78.8281
" />
<path d="M127.6894 78.8281
L127.3870 78.8281
" />
<path d="M127.3870 78.8281
L127.2660 78.7677
" />
<path d="M127.2660 78.7677
L127.2056 78.6467
" />
<path d="M127.2056 78.6467
L127.2056 78.5257
" />
<path d="M127.2056 78.5257
L127.2660 78.4048
" />
<path d="M127.2660 78.4048
L127.3870 78.3443
" />
<path d="M127.3870 78.3443
L127.6894 78.3443
" />
<path d="M127.6894 78.3443
L127.8103 78.2838
" />
<path d="M128.9593 78.7677
L128.8384 78.8281
" />
<path d="M128.8384 78.8281
L128.5965 78.8281
" />
<path d="M128.5965 78.8281
L128.4755 78.7677
" />
<path d="M128.4755 78.7677
L128.4150 78.7072
" />
<path d="M128.4150 78.7072
L128.3546 78.5862
" />
<path d="M128.3546 78.5862
L128.3546 78.2234
" />
<path d="M128.3546 78.2234
L128.4150 78.1024
" />
<path d="M128.4150 78.1024
L128.4755 78.0419
" />
<path d="M128.4755 78.0419
L128.5965 77.9815
" />
<path d="M128.5965 77.9815
L128.8384 77.9815
" />
<path d="M128.8384 77.9815
L128.9593 78.0419
" />
<path d="M129.5036 78.8281
L129.5036 77.5581
" />
<path d="M129.6246 78.3443
L129.9874 78.8281
" />
<path d="M129.9874 77.9815
L129.5036 78.4653
" />
<path d="M130.4713 78.7677
L130.5922 78.8281
" />
<path d="M130.5922 78.8281
L130.8341 78.8281
" />
<path d="M130.8341 78.8281
L130.9551 78.7677
" />
<path d="M130.9551 78.7677
L131.0155 78.6467
" />
<path d="M131.0155 78.6467
L131.0155 78.5862
" />
<path d="M131.0155 78.5862
L130.9551 78.4653
" />
<path d="M130.9551 78.4653
L130.8341 78.4048
" />
<path d="M130.8341 78.4048
L130.6527 78.4048
" />
<path d="M130.6527 78.4048
L130.5317 78.3443
" />
<path d="M130.5317 78.3443
L130.4713 78.2234
" />
<path d="M130.4713 78.2234
L130.4713 78.1629
" />
<path d="M130.4713 78.1629
L130.5317 78.0419
" />
<path d="M130.5317 78.0419
L130.6527 77.9815
" />
<path d="M130.6527 77.9815
L130.8341 77.9815
" />
<path d="M130.8341 77.9815
L130.9551 78.0419
" />
<path d="M131.4389 79.3119
L131.4994 79.2515
" />
<path d="M131.4994 79.2515
L131.6203 79.0700
" />
<path d="M131.6203 79.0700
L131.6808 78.9491
" />
<path d="M131.6808 78.9491
L131.7413 78.7677
" />
<path d="M131.7413 78.7677
L131.8017 78.4653
" />
<path d="M131.8017 78.4653
L131.8017 78.2234
" />
<path d="M131.8017 78.2234
L131.7413 77.9210
" />
<path d="M131.7413 77.9210
L131.6808 77.7396
" />
<path d="M131.6808 77.7396
L131.6203 77.6186
" />
<path d="M131.6203 77.6186
L131.4994 77.4372
" />
<path d="M131.4994 77.4372
L131.4389 77.3767
" />
</g></g>
<g style="fill:none; 
stroke:#006464; stroke-width:0.1524; stroke-opacity:1; 
stroke-linecap:round; stroke-linejoin:round;">
<text x="92.7909" y="81.4704"
textLength="5.2226" font-size="1.6933" lengthAdjust="spacingAndGlyphs"
text-anchor="middle" opacity="0" stroke-opacity="0">MES1</text>
<g class="stroked-text"><desc>MES1</desc>
<path d="M90.5835 81.4149
L90.5835 80.1449
" />
<path d="M90.5835 80.1449
L91.0069 81.0521
" />
<path d="M91.0069 81.0521
L91.4302 80.1449
" />
<path d="M91.4302 80.1449
L91.4302 81.4149
" />
<path d="M92.0349 80.7497
L92.4583 80.7497
" />
<path d="M92.6397 81.4149
L92.0349 81.4149
" />
<path d="M92.0349 81.4149
L92.0349 80.1449
" />
<path d="M92.0349 80.1449
L92.6397 80.1449
" />
<path d="M93.1235 81.3545
L93.3049 81.4149
" />
<path d="M93.3049 81.4149
L93.6073 81.4149
" />
<path d="M93.6073 81.4149
L93.7282 81.3545
" />
<path d="M93.7282 81.3545
L93.7887 81.2940
" />
<path d="M93.7887 81.2940
L93.8492 81.1730
" />
<path d="M93.8492 81.1730
L93.8492 81.0521
" />
<path d="M93.8492 81.0521
L93.7887 80.9311
" />
<path d="M93.7887 80.9311
L93.7282 80.8706
" />
<path d="M93.7282 80.8706
L93.6073 80.8102
" />
<path d="M93.6073 80.8102
L93.3654 80.7497
" />
<path d="M93.3654 80.7497
L93.2444 80.6892
" />
<path d="M93.2444 80.6892
L93.1839 80.6287
" />
<path d="M93.1839 80.6287
L93.1235 80.5078
" />
<path d="M93.1235 80.5078
L93.1235 80.3868
" />
<path d="M93.1235 80.3868
L93.1839 80.2659
" />
<path d="M93.1839 80.2659
L93.2444 80.2054
" />
<path d="M93.2444 80.2054
L93.3654 80.1449
" />
<path d="M93.3654 80.1449
L93.6677 80.1449
" />
<path d="M93.6677 80.1449
L93.8492 80.2054
" />
<path d="M95.0587 81.4149
L94.3330 81.4149
" />
<path d="M94.6958 81.4149
L94.6958 80.1449
" />
<path d="M94.6958 80.1449
L94.5749 80.3264
" />
<path d="M94.5749 80.3264
L94.4539 80.4473
" />
<path d="M94.4539 80.4473
L94.3330 80.5078
" />
</g><text x="96.5404" y="84.0104"
textLength="12.7217" font-size="1.6933" lengthAdjust="spacingAndGlyphs"
text-anchor="middle" opacity="0" stroke-opacity="0">Voltmeter_DC</text>
<g class="stroked-text"><desc>Voltmeter_DC</desc>
<path d="M90.4021 82.6849
L90.8254 83.9549
" />
<path d="M90.8254 83.9549
L91.2488 82.6849
" />
<path d="M91.8536 83.9549
L91.7326 83.8945
" />
<path d="M91.7326 83.8945
L91.6721 83.8340
" />
<path d="M91.6721 83.8340
L91.6117 83.7130
" />
<path d="M91.6117 83.7130
L91.6117 83.3502
" />
<path d="M91.6117 83.3502
L91.6721 83.2292
" />
<path d="M91.6721 83.2292
L91.7326 83.1687
" />
<path d="M91.7326 83.1687
L91.8536 83.1083
" />
<path d="M91.8536 83.1083
L92.0350 83.1083
" />
<path d="M92.0350 83.1083
L92.1559 83.1687
" />
<path d="M92.1559 83.1687
L92.2164 83.2292
" />
<path d="M92.2164 83.2292
L92.2769 83.3502
" />
<path d="M92.2769 83.3502
L92.2769 83.7130
" />
<path d="M92.2769 83.7130
L92.2164 83.8340
" />
<path d="M92.2164 83.8340
L92.1559 83.8945
" />
<path d="M92.1559 83.8945
L92.0350 83.9549
" />
<path d="M92.0350 83.9549
L91.8536 83.9549
" />
<path d="M93.0026 83.9549
L92.8816 83.8945
" />
<path d="M92.8816 83.8945
L92.8211 83.7735
" />
<path d="M92.8211 83.7735
L92.8211 82.6849
" />
<path d="M93.3049 83.1083
L93.7887 83.1083
" />
<path d="M93.4863 82.6849
L93.4863 83.7735
" />
<path d="M93.4863 83.7735
L93.5468 83.8945
" />
<path d="M93.5468 83.8945
L93.6678 83.9549
" />
<path d="M93.6678 83.9549
L93.7887 83.9549
" />
<path d="M94.2120 83.9549
L94.2120 83.1083
" />
<path d="M94.2120 83.2292
L94.2725 83.1687
" />
<path d="M94.2725 83.1687
L94.3935 83.1083
" />
<path d="M94.3935 83.1083
L94.5749 83.1083
" />
<path d="M94.5749 83.1083
L94.6958 83.1687
" />
<path d="M94.6958 83.1687
L94.7563 83.2897
" />
<path d="M94.7563 83.2897
L94.7563 83.9549
" />
<path d="M94.7563 83.2897
L94.8168 83.1687
" />
<path d="M94.8168 83.1687
L94.9377 83.1083
" />
<path d="M94.9377 83.1083
L95.1192 83.1083
" />
<path d="M95.1192 83.1083
L95.2401 83.1687
" />
<path d="M95.2401 83.1687
L95.3006 83.2897
" />
<path d="M95.3006 83.2897
L95.3006 83.9549
" />
<path d="M96.3891 83.8945
L96.2682 83.9549
" />
<path d="M96.2682 83.9549
L96.0263 83.9549
" />
<path d="M96.0263 83.9549
L95.9053 83.8945
" />
<path d="M95.9053 83.8945
L95.8449 83.7735
" />
<path d="M95.8449 83.7735
L95.8449 83.2897
" />
<path d="M95.8449 83.2897
L95.9053 83.1687
" />
<path d="M95.9053 83.1687
L96.0263 83.1083
" />
<path d="M96.0263 83.1083
L96.2682 83.1083
" />
<path d="M96.2682 83.1083
L96.3891 83.1687
" />
<path d="M96.3891 83.1687
L96.4496 83.2897
" />
<path d="M96.4496 83.2897
L96.4496 83.4106
" />
<path d="M96.4496 83.4106
L95.8449 83.5316
" />
<path d="M96.8125 83.1083
L97.2963 83.1083
" />
<path d="M96.9939 82.6849
L96.9939 83.7735
" />
<path d="M96.9939 83.7735
L97.0544 83.8945
" />
<path d="M97.0544 83.8945
L97.1754 83.9549
" />
<path d="M97.1754 83.9549
L97.2963 83.9549
" />
<path d="M98.2034 83.8945
L98.0825 83.9549
" />
<path d="M98.0825 83.9549
L97.8406 83.9549
" />
<path d="M97.8406 83.9549
L97.7196 83.8945
" />
<path d="M97.7196 83.8945
L97.6592 83.7735
" />
<path d="M97.6592 83.7735
L97.6592 83.2897
" />
<path d="M97.6592 83.2897
L97.7196 83.1687
" />
<path d="M97.7196 83.1687
L97.8406 83.1083
" />
<path d="M97.8406 83.1083
L98.0825 83.1083
" />
<path d="M98.0825 83.1083
L98.2034 83.1687
" />
<path d="M98.2034 83.1687
L98.2639 83.2897
" />
<path d="M98.2639 83.2897
L98.2639 83.4106
" />
<path d="M98.2639 83.4106
L97.6592 83.5316
" />
<path d="M98.8082 83.9549
L98.8082 83.1083
" />
<path d="M98.8082 83.3502
L98.8687 83.2292
" />
<path d="M98.8687 83.2292
L98.9292 83.1687
" />
<path d="M98.9292 83.1687
L99.0501 83.1083
" />
<path d="M99.0501 83.1083
L99.1711 83.1083
" />
<path d="M99.2921 84.0759
L100.2597 84.0759
" />
<path d="M100.5620 83.9549
L100.5620 82.6849
" />
<path d="M100.5620 82.6849
L100.8644 82.6849
" />
<path d="M100.8644 82.6849
L101.0458 82.7454
" />
<path d="M101.0458 82.7454
L101.1668 82.8664
" />
<path d="M101.1668 82.8664
L101.2273 82.9873
" />
<path d="M101.2273 82.9873
L101.2877 83.2292
" />
<path d="M101.2877 83.2292
L101.2877 83.4106
" />
<path d="M101.2877 83.4106
L101.2273 83.6525
" />
<path d="M101.2273 83.6525
L101.1668 83.7735
" />
<path d="M101.1668 83.7735
L101.0458 83.8945
" />
<path d="M101.0458 83.8945
L100.8644 83.9549
" />
<path d="M100.8644 83.9549
L100.5620 83.9549
" />
<path d="M102.5577 83.8340
L102.4973 83.8945
" />
<path d="M102.4973 83.8945
L102.3158 83.9549
" />
<path d="M102.3158 83.9549
L102.1949 83.9549
" />
<path d="M102.1949 83.9549
L102.0135 83.8945
" />
<path d="M102.0135 83.8945
L101.8925 83.7735
" />
<path d="M101.8925 83.7735
L101.8320 83.6525
" />
<path d="M101.8320 83.6525
L101.7716 83.4106
" />
<path d="M101.7716 83.4106
L101.7716 83.2292
" />
<path d="M101.7716 83.2292
L101.8320 82.9873
" />
<path d="M101.8320 82.9873
L101.8925 82.8664
" />
<path d="M101.8925 82.8664
L102.0135 82.7454
" />
<path d="M102.0135 82.7454
L102.1949 82.6849
" />
<path d="M102.1949 82.6849
L102.3158 82.6849
" />
<path d="M102.3158 82.6849
L102.4973 82.7454
" />
<path d="M102.4973 82.7454
L102.5577 82.8059
" />
</g></g>
<g style="fill:none; 
stroke:#840000; stroke-width:0.1524; stroke-opacity:1; 
stroke-linecap:round; stroke-linejoin:round;">
<path d="M86.3600 80.0100
L86.3600 77.4700
" />
<path d="M86.3600 85.0900
L86.3600 87.6300
" />
</g>
<g style="fill:none; 
stroke:#006464; stroke-width:0.1524; stroke-opacity:1; 
stroke-linecap:round; stroke-linejoin:round;">
<text x="99.1712" y="76.8349"
textLength="5.2832" font-size="1.6933" lengthAdjust="spacingAndGlyphs"
text-anchor="middle" opacity="0" stroke-opacity="0">+12V</text>
<g class="stroked-text"><desc>+12V</desc>
<path d="M96.9335 76.2956
L97.9012 76.2956
" />
<path d="M97.4173 76.7794
L97.4173 75.8118
" />
<path d="M99.1712 76.7794
L98.4455 76.7794
" />
<path d="M98.8083 76.7794
L98.8083 75.5094
" />
<path d="M98.8083 75.5094
L98.6874 75.6909
" />
<path d="M98.6874 75.6909
L98.5664 75.8118
" />
<path d="M98.5664 75.8118
L98.4455 75.8723
" />
<path d="M99.6550 75.6304
L99.7154 75.5699
" />
<path d="M99.7154 75.5699
L99.8364 75.5094
" />
<path d="M99.8364 75.5094
L100.1388 75.5094
" />
<path d="M100.1388 75.5094
L100.2597 75.5699
" />
<path d="M100.2597 75.5699
L100.3202 75.6304
" />
<path d="M100.3202 75.6304
L100.3807 75.7513
" />
<path d="M100.3807 75.7513
L100.3807 75.8723
" />
<path d="M100.3807 75.8723
L100.3202 76.0537
" />
<path d="M100.3202 76.0537
L99.5945 76.7794
" />
<path d="M99.5945 76.7794
L100.3807 76.7794
" />
<path d="M100.7435 75.5094
L101.1668 76.7794
" />
<path d="M101.1668 76.7794
L101.5902 75.5094
" />
</g></g>
<g style="fill:none; 
stroke:#840000; stroke-width:0.1524; stroke-opacity:1; 
stroke-linecap:round; stroke-linejoin:round;">
<path d="M92.7100 76.2000
L92.7100 76.2000
" />
</g>
<g style="fill:#009600; fill-opacity:1.0000; 
stroke:#009600; stroke-width:0.1524; stroke-opacity:1; 
stroke-linecap:round; stroke-linejoin:round;">
<circle cx="107.9500" cy="88.9000" r="0.4572" /> 
<circle cx="86.3600" cy="88.9000" r="0.4572" /> 
<circle cx="80.0100" cy="64.7700" r="0.4572" /> 
<circle cx="86.3600" cy="76.2000" r="0.4572" /> 
</g> 
</svg>
